# Blender v2.90.1 OBJ File: 'tree.blend'
# www.blender.org
mtllib bottomtree.mtl
o Cylinder.016_Cylinder.001
v -1.751886 13.080658 -6.934667
v 0.084782 6.847066 -5.158932
v -1.751886 6.847066 -5.827419
v 0.796505 13.080658 -6.007132
v 1.062048 6.847066 -3.466259
v 2.152477 13.080658 -3.658525
v 0.722647 6.847066 -1.541414
v -0.395912 13.080657 0.755413
v -0.774616 6.847066 -0.285060
v -3.107849 13.080657 0.755413
v -2.729155 6.847066 -0.285072
v -5.185314 13.080657 -0.987791
v -4.226408 6.847066 -1.541414
v -4.565807 6.847066 -3.466259
v 1.681551 13.080657 -0.987791
v -3.588539 6.847066 -5.158932
v -4.300274 13.080658 -6.007132
v 0.796505 0.749968 -6.007138
v 1.681551 0.749967 -0.987792
v -3.107849 0.749967 0.755408
v -4.300274 0.749968 -6.007138
v -5.656239 0.749968 -3.658531
v -1.751886 0.749968 -6.934672
v -5.185314 0.749967 -0.987792
v -0.395912 0.749967 0.755408
v 2.152477 0.749968 -3.658531
v -5.656239 13.080658 -3.658525
v -3.944408 9.963862 -5.583032
vn 0.3374 -0.1646 -0.9269
vn 0.8542 -0.1646 -0.4932
vn 0.9714 -0.1646 0.1713
vn 0.6340 -0.1646 0.7556
vn -0.0000 -0.1646 0.9864
vn -0.6340 -0.1646 0.7556
vn -0.9714 -0.1646 0.1713
vn 0.0000 1.0000 0.0000
vn -0.3374 -0.1646 -0.9269
vn -0.8542 -0.1646 -0.4932
vn 0.0000 -1.0000 -0.0000
vn -0.8537 0.1682 -0.4929
vn -0.3371 0.1682 -0.9263
vn -0.9708 0.1682 0.1712
vn -0.6336 0.1682 0.7551
vn -0.0000 0.1682 0.9857
vn 0.6336 0.1682 0.7551
vn 0.9708 0.1682 0.1712
vn 0.8537 0.1682 -0.4929
vn 0.3371 0.1682 -0.9263
usemtl Bark
s 1
f 1//1 2//1 3//1
f 4//2 5//2 2//2
f 6//3 7//3 5//3
f 7//4 8//4 9//4
f 9//5 10//5 11//5
f 11//6 12//6 13//6
f 12//7 14//7 13//7
f 1//8 10//8 15//8
f 16//9 1//9 3//9
f 14//10 28//10 16//10
f 18//11 19//11 20//11
f 14//12 21//12 22//12
f 16//13 23//13 21//13
f 13//14 22//14 24//14
f 11//15 24//15 20//15
f 9//16 20//16 25//16
f 7//17 25//17 19//17
f 5//18 19//18 26//18
f 18//19 5//19 26//19
f 3//20 18//20 23//20
f 1//1 4//1 2//1
f 4//2 6//2 5//2
f 6//3 15//3 7//3
f 7//4 15//4 8//4
f 9//5 8//5 10//5
f 11//6 10//6 12//6
f 12//7 27//7 14//7
f 6//8 4//8 15//8
f 4//8 1//8 15//8
f 1//8 17//8 27//8
f 27//8 12//8 1//8
f 12//8 10//8 1//8
f 10//8 8//8 15//8
f 28//9 1//9 16//9
f 14//10 27//10 17//10
f 21//11 23//11 22//11
f 23//11 18//11 22//11
f 18//11 26//11 19//11
f 19//11 25//11 20//11
f 20//11 24//11 18//11
f 24//11 22//11 18//11
f 14//12 16//12 21//12
f 16//13 3//13 23//13
f 13//14 14//14 22//14
f 11//15 13//15 24//15
f 9//16 11//16 20//16
f 7//17 9//17 25//17
f 5//18 7//18 19//18
f 18//19 2//19 5//19
f 3//20 2//20 18//20
f 14//10 17//10 28//10
f 28//9 17//9 1//9
