# Blender v2.90.1 OBJ File: 'spider.blend'
# www.blender.org
mtllib mesh_upperleg_r1.mtl
o Cylinder
v -1.035244 1.904302 0.881778
v -0.502468 1.358424 0.495375
v -1.047696 1.889578 0.885411
v -0.514920 1.343700 0.499008
v -1.058037 1.874357 0.892656
v -0.525260 1.328479 0.506253
v -1.065869 1.859225 0.903235
v -0.533092 1.313347 0.516832
v -1.070891 1.844763 0.916741
v -0.538114 1.298885 0.530338
v -1.072910 1.831527 0.932655
v -0.540133 1.285649 0.546252
v -1.071849 1.820026 0.950366
v -0.539072 1.274148 0.563962
v -1.067748 1.810702 0.969192
v -0.534971 1.264824 0.582789
v -1.060765 1.803913 0.988411
v -0.527988 1.258035 0.602008
v -1.051169 1.799920 1.007284
v -0.518392 1.254042 0.620881
v -1.039328 1.798876 1.025085
v -0.506551 1.252998 0.638682
v -1.025697 1.800822 1.041131
v -0.492920 1.254944 0.654728
v -1.010800 1.805682 1.054805
v -0.478023 1.259804 0.668402
v -0.995209 1.813270 1.065581
v -0.462432 1.267392 0.679178
v -0.979524 1.823295 1.073046
v -0.446747 1.277417 0.686643
v -0.964348 1.835371 1.076912
v -0.431571 1.289493 0.690508
v -0.950263 1.849034 1.077030
v -0.417486 1.303156 0.690627
v -0.937811 1.863758 1.073397
v -0.405034 1.317881 0.686994
v -0.927470 1.878979 1.066152
v -0.394693 1.333102 0.679749
v -0.919639 1.894111 1.055573
v -0.386862 1.348234 0.669170
v -0.914617 1.908573 1.042067
v -0.381840 1.362695 0.655664
v -0.912597 1.921809 1.026153
v -0.379821 1.375931 0.639750
v -0.913659 1.933310 1.008443
v -0.380882 1.387432 0.622039
v -0.917759 1.942634 0.989616
v -0.384982 1.396756 0.603213
v -0.924742 1.949423 0.970397
v -0.391965 1.403545 0.583994
v -0.934338 1.953416 0.951524
v -0.401562 1.407538 0.565121
v -0.946180 1.954460 0.933723
v -0.413403 1.408582 0.547319
v -0.959811 1.952514 0.917677
v -0.427034 1.406636 0.531273
v -0.974708 1.947654 0.904003
v -0.441931 1.401776 0.517600
v -0.990298 1.940066 0.893227
v -0.457521 1.394188 0.506823
v -1.005983 1.930041 0.885762
v -0.473206 1.384163 0.499359
v -1.021160 1.917965 0.881897
v -0.488383 1.372087 0.495493
vt 1.000000 1.000000
vt 0.968750 0.500000
vt 1.000000 0.500000
vt 0.968750 1.000000
vt 0.937500 0.500000
vt 0.937500 1.000000
vt 0.906250 0.500000
vt 0.906250 1.000000
vt 0.875000 0.500000
vt 0.875000 1.000000
vt 0.843750 0.500000
vt 0.843750 1.000000
vt 0.812500 0.500000
vt 0.812500 1.000000
vt 0.781250 0.500000
vt 0.781250 1.000000
vt 0.750000 0.500000
vt 0.750000 1.000000
vt 0.718750 0.500000
vt 0.718750 1.000000
vt 0.687500 0.500000
vt 0.687500 1.000000
vt 0.656250 0.500000
vt 0.656250 1.000000
vt 0.625000 0.500000
vt 0.625000 1.000000
vt 0.593750 0.500000
vt 0.593750 1.000000
vt 0.562500 0.500000
vt 0.562500 1.000000
vt 0.531250 0.500000
vt 0.531250 1.000000
vt 0.500000 0.500000
vt 0.500000 1.000000
vt 0.468750 0.500000
vt 0.468750 1.000000
vt 0.437500 0.500000
vt 0.437500 1.000000
vt 0.406250 0.500000
vt 0.406250 1.000000
vt 0.375000 0.500000
vt 0.375000 1.000000
vt 0.343750 0.500000
vt 0.343750 1.000000
vt 0.312500 0.500000
vt 0.312500 1.000000
vt 0.281250 0.500000
vt 0.281250 1.000000
vt 0.250000 0.500000
vt 0.250000 1.000000
vt 0.218750 0.500000
vt 0.218750 1.000000
vt 0.187500 0.500000
vt 0.187500 1.000000
vt 0.156250 0.500000
vt 0.156250 1.000000
vt 0.125000 0.500000
vt 0.125000 1.000000
vt 0.093750 0.500000
vt 0.093750 1.000000
vt 0.062500 0.500000
vt 0.028269 0.341844
vt 0.158156 0.028269
vt 0.471731 0.158156
vt 0.062500 1.000000
vt 0.031250 0.500000
vt 0.031250 1.000000
vt 0.000000 0.500000
vt 0.985388 0.296822
vt 0.796822 0.014612
vt 0.514611 0.203179
vt 0.341844 0.471731
vt 0.296822 0.485388
vt 0.250000 0.490000
vt 0.203179 0.485389
vt 0.158156 0.471731
vt 0.116663 0.449553
vt 0.080295 0.419706
vt 0.050447 0.383337
vt 0.014612 0.296822
vt 0.010000 0.250000
vt 0.014611 0.203179
vt 0.028269 0.158156
vt 0.050447 0.116663
vt 0.080294 0.080294
vt 0.116663 0.050447
vt 0.203178 0.014612
vt 0.250000 0.010000
vt 0.296822 0.014612
vt 0.341844 0.028269
vt 0.383337 0.050447
vt 0.419706 0.080294
vt 0.449553 0.116663
vt 0.485388 0.203178
vt 0.490000 0.250000
vt 0.485388 0.296822
vt 0.471731 0.341844
vt 0.449553 0.383337
vt 0.419706 0.419706
vt 0.383337 0.449553
vt 0.000000 1.000000
vt 0.703179 0.485389
vt 0.750000 0.490000
vt 0.796822 0.485388
vt 0.841844 0.471731
vt 0.883337 0.449553
vt 0.919706 0.419706
vt 0.949553 0.383337
vt 0.971731 0.341844
vt 0.990000 0.250000
vt 0.985388 0.203178
vt 0.971731 0.158156
vt 0.949553 0.116663
vt 0.919706 0.080294
vt 0.883337 0.050447
vt 0.841844 0.028269
vt 0.750000 0.010000
vt 0.703178 0.014612
vt 0.658156 0.028269
vt 0.616663 0.050447
vt 0.580294 0.080294
vt 0.550447 0.116663
vt 0.528269 0.158156
vt 0.510000 0.250000
vt 0.514612 0.296822
vt 0.528269 0.341844
vt 0.550447 0.383337
vt 0.580295 0.419706
vt 0.616663 0.449553
vt 0.658156 0.471731
vn -0.4573 0.1714 -0.8726
vn -0.5817 0.0080 -0.8134
vn -0.6777 -0.1522 -0.7194
vn -0.7425 -0.3010 -0.5984
vn -0.7761 -0.4329 -0.4585
vn -0.7805 -0.5446 -0.3069
vn -0.7583 -0.6346 -0.1491
vn -0.7119 -0.7022 0.0106
vn -0.6430 -0.7471 0.1689
vn -0.5529 -0.7682 0.3228
vn -0.4429 -0.7642 0.4689
vn -0.3141 -0.7334 0.6029
vn -0.1690 -0.6740 0.7191
vn -0.0117 -0.5853 0.8107
vn 0.1511 -0.4686 0.8704
vn 0.3108 -0.3281 0.8920
vn 0.4573 -0.1714 0.8726
vn 0.5817 -0.0080 0.8134
vn 0.6777 0.1522 0.7194
vn 0.7425 0.3010 0.5984
vn 0.7761 0.4329 0.4585
vn 0.7805 0.5446 0.3069
vn 0.7583 0.6346 0.1491
vn 0.7119 0.7022 -0.0106
vn 0.6430 0.7471 -0.1689
vn 0.5530 0.7682 -0.3228
vn 0.4429 0.7642 -0.4689
vn 0.3141 0.7334 -0.6029
vn 0.1690 0.6740 -0.7191
vn 0.0117 0.5853 -0.8107
vn 0.6231 -0.6384 -0.4519
vn -0.1511 0.4686 -0.8704
vn -0.3108 0.3281 -0.8920
vn -0.6231 0.6384 0.4519
vn -0.5530 -0.7682 0.3228
vn 0.7425 0.3011 0.5984
vn 0.6230 -0.6384 -0.4520
vn -0.6230 0.6384 0.4519
vn -0.6230 0.6384 0.4520
vn -0.6231 0.6384 0.4520
usemtl None
s off
f 2/1/1 3/2/1 1/3/1
f 4/4/2 5/5/2 3/2/2
f 6/6/3 7/7/3 5/5/3
f 8/8/4 9/9/4 7/7/4
f 10/10/5 11/11/5 9/9/5
f 12/12/6 13/13/6 11/11/6
f 14/14/7 15/15/7 13/13/7
f 16/16/8 17/17/8 15/15/8
f 18/18/9 19/19/9 17/17/9
f 20/20/10 21/21/10 19/19/10
f 22/22/11 23/23/11 21/21/11
f 24/24/12 25/25/12 23/23/12
f 26/26/13 27/27/13 25/25/13
f 28/28/14 29/29/14 27/27/14
f 30/30/15 31/31/15 29/29/15
f 32/32/16 33/33/16 31/31/16
f 34/34/17 35/35/17 33/33/17
f 36/36/18 37/37/18 35/35/18
f 38/38/19 39/39/19 37/37/19
f 40/40/20 41/41/20 39/39/20
f 42/42/21 43/43/21 41/41/21
f 44/44/22 45/45/22 43/43/22
f 46/46/23 47/47/23 45/45/23
f 48/48/24 49/49/24 47/47/24
f 50/50/25 51/51/25 49/49/25
f 52/52/26 53/53/26 51/51/26
f 54/54/27 55/55/27 53/53/27
f 56/56/28 57/57/28 55/55/28
f 58/58/29 59/59/29 57/57/29
f 60/60/30 61/61/30 59/59/30
f 54/62/31 38/63/31 22/64/31
f 62/65/32 63/66/32 61/61/32
f 64/67/33 1/68/33 63/66/33
f 15/69/34 31/70/34 47/71/34
f 2/1/1 4/4/1 3/2/1
f 4/4/2 6/6/2 5/5/2
f 6/6/3 8/8/3 7/7/3
f 8/8/4 10/10/4 9/9/4
f 10/10/5 12/12/5 11/11/5
f 12/12/6 14/14/6 13/13/6
f 14/14/7 16/16/7 15/15/7
f 16/16/8 18/18/8 17/17/8
f 18/18/9 20/20/9 19/19/9
f 20/20/35 22/22/35 21/21/35
f 22/22/11 24/24/11 23/23/11
f 24/24/12 26/26/12 25/25/12
f 26/26/13 28/28/13 27/27/13
f 28/28/14 30/30/14 29/29/14
f 30/30/15 32/32/15 31/31/15
f 32/32/16 34/34/16 33/33/16
f 34/34/17 36/36/17 35/35/17
f 36/36/18 38/38/18 37/37/18
f 38/38/19 40/40/19 39/39/19
f 40/40/36 42/42/36 41/41/36
f 42/42/21 44/44/21 43/43/21
f 44/44/22 46/46/22 45/45/22
f 46/46/23 48/48/23 47/47/23
f 48/48/24 50/50/24 49/49/24
f 50/50/25 52/52/25 51/51/25
f 52/52/26 54/54/26 53/53/26
f 54/54/27 56/56/27 55/55/27
f 56/56/28 58/58/28 57/57/28
f 58/58/29 60/60/29 59/59/29
f 60/60/30 62/65/30 61/61/30
f 6/72/31 4/73/31 2/74/31
f 2/74/31 64/75/31 6/72/31
f 64/75/31 62/76/31 6/72/31
f 62/76/31 60/77/31 58/78/31
f 58/78/31 56/79/31 54/62/31
f 54/62/31 52/80/31 50/81/31
f 50/81/31 48/82/31 54/62/31
f 48/82/31 46/83/31 54/62/31
f 46/83/31 44/84/31 38/63/31
f 44/84/31 42/85/31 38/63/31
f 42/85/37 40/86/37 38/63/37
f 38/63/31 36/87/31 34/88/31
f 34/88/31 32/89/31 30/90/31
f 30/90/31 28/91/31 26/92/31
f 26/92/31 24/93/31 22/64/31
f 22/64/31 20/94/31 18/95/31
f 18/95/31 16/96/31 22/64/31
f 16/96/31 14/97/31 22/64/31
f 14/97/31 12/98/31 10/99/31
f 10/99/31 8/100/31 6/72/31
f 62/76/31 58/78/31 6/72/31
f 58/78/31 54/62/31 6/72/31
f 38/63/31 34/88/31 22/64/31
f 34/88/31 30/90/31 22/64/31
f 30/90/31 26/92/31 22/64/31
f 14/97/31 10/99/31 22/64/31
f 10/99/31 6/72/31 22/64/31
f 54/62/31 46/83/31 38/63/31
f 6/72/31 54/62/31 22/64/31
f 62/65/32 64/67/32 63/66/32
f 64/67/33 2/101/33 1/68/33
f 63/102/34 1/103/34 3/104/34
f 3/104/34 5/105/34 7/106/34
f 7/106/34 9/107/34 11/108/34
f 11/108/34 13/109/34 7/106/34
f 13/109/34 15/69/34 7/106/34
f 15/69/34 17/110/34 19/111/34
f 19/111/34 21/112/34 15/69/34
f 21/112/34 23/113/34 15/69/34
f 23/113/34 25/114/34 31/70/34
f 25/114/34 27/115/34 31/70/34
f 27/115/34 29/116/34 31/70/34
f 31/70/38 33/117/38 35/118/38
f 35/118/39 37/119/39 39/120/39
f 39/120/34 41/121/34 43/122/34
f 43/122/34 45/123/34 47/71/34
f 47/71/40 49/124/40 51/125/40
f 51/125/38 53/126/38 55/127/38
f 55/127/34 57/128/34 63/102/34
f 57/128/34 59/129/34 63/102/34
f 59/129/40 61/130/40 63/102/40
f 63/102/34 3/104/34 7/106/34
f 31/70/34 35/118/34 47/71/34
f 35/118/34 39/120/34 47/71/34
f 39/120/34 43/122/34 47/71/34
f 47/71/34 51/125/34 63/102/34
f 51/125/34 55/127/34 63/102/34
f 63/102/34 7/106/34 15/69/34
f 15/69/34 23/113/34 31/70/34
f 63/102/34 15/69/34 47/71/34
