# Blender v2.90.1 OBJ File: 'spider.blend'
# www.blender.org
mtllib mesh_lowerleg_r4.mtl
o Cylinder.006_Cylinder.008
v -0.923136 1.988208 -0.876466
v -2.180609 0.585187 -2.103848
v -0.935841 2.002425 -0.879701
v -2.193313 0.599404 -2.107084
v -0.950640 2.015298 -0.879255
v -2.208112 0.612278 -2.106638
v -0.966965 2.026334 -0.875145
v -2.224438 0.623313 -2.102527
v -0.984189 2.035108 -0.867528
v -2.241662 0.632087 -2.094910
v -1.001650 2.041283 -0.856697
v -2.259122 0.638262 -2.084080
v -1.018677 2.044621 -0.843070
v -2.276149 0.641600 -2.070452
v -1.034614 2.044995 -0.827168
v -2.292087 0.641974 -2.054551
v -1.048851 2.042389 -0.809604
v -2.306324 0.639368 -2.036987
v -1.060840 2.036905 -0.791052
v -2.318312 0.633884 -2.018435
v -1.070120 2.028753 -0.772226
v -2.327592 0.625732 -1.999608
v -1.076334 2.018245 -0.753848
v -2.333807 0.615224 -1.981231
v -1.079244 2.005787 -0.736625
v -2.336716 0.602766 -1.964008
v -1.078738 1.991856 -0.721220
v -2.336210 0.588835 -1.948602
v -1.074835 1.976988 -0.708223
v -2.332307 0.573967 -1.935605
v -1.067686 1.961755 -0.698134
v -2.325158 0.558734 -1.925517
v -1.057564 1.946741 -0.691342
v -2.315037 0.543720 -1.918725
v -1.044860 1.932525 -0.688107
v -2.302332 0.529504 -1.915489
v -1.030061 1.919651 -0.688553
v -2.287533 0.516630 -1.915936
v -1.013735 1.908615 -0.692663
v -2.271208 0.505594 -1.920046
v -0.996511 1.899841 -0.700280
v -2.253983 0.496820 -1.927663
v -0.979051 1.893667 -0.711111
v -2.236523 0.490646 -1.938493
v -0.962024 1.890328 -0.724738
v -2.219496 0.487307 -1.952121
v -0.946086 1.889955 -0.740640
v -2.203558 0.486934 -1.968023
v -0.931849 1.892560 -0.758204
v -2.189322 0.489539 -1.985587
v -0.919861 1.898044 -0.776756
v -2.177333 0.495023 -2.004138
v -0.910581 1.906197 -0.795582
v -2.168053 0.503176 -2.022965
v -0.904367 1.916704 -0.813960
v -2.161839 0.513683 -2.041343
v -0.901457 1.929163 -0.831183
v -2.158929 0.526142 -2.058565
v -0.901963 1.943094 -0.846588
v -2.159435 0.540073 -2.073971
v -0.905866 1.957961 -0.859585
v -2.163338 0.554940 -2.086968
v -0.913015 1.973195 -0.869674
v -2.170487 0.570174 -2.097056
vt 1.000000 1.000000
vt 0.968750 0.500000
vt 1.000000 0.500000
vt 0.968750 1.000000
vt 0.937500 0.500000
vt 0.937500 1.000000
vt 0.906250 0.500000
vt 0.906250 1.000000
vt 0.875000 0.500000
vt 0.875000 1.000000
vt 0.843750 0.500000
vt 0.843750 1.000000
vt 0.812500 0.500000
vt 0.812500 1.000000
vt 0.781250 0.500000
vt 0.781250 1.000000
vt 0.750000 0.500000
vt 0.750000 1.000000
vt 0.718750 0.500000
vt 0.718750 1.000000
vt 0.687500 0.500000
vt 0.687500 1.000000
vt 0.656250 0.500000
vt 0.656250 1.000000
vt 0.625000 0.500000
vt 0.625000 1.000000
vt 0.593750 0.500000
vt 0.593750 1.000000
vt 0.562500 0.500000
vt 0.562500 1.000000
vt 0.531250 0.500000
vt 0.531250 1.000000
vt 0.500000 0.500000
vt 0.500000 1.000000
vt 0.468750 0.500000
vt 0.468750 1.000000
vt 0.437500 0.500000
vt 0.437500 1.000000
vt 0.406250 0.500000
vt 0.406250 1.000000
vt 0.375000 0.500000
vt 0.375000 1.000000
vt 0.343750 0.500000
vt 0.343750 1.000000
vt 0.312500 0.500000
vt 0.312500 1.000000
vt 0.281250 0.500000
vt 0.281250 1.000000
vt 0.250000 0.500000
vt 0.250000 1.000000
vt 0.218750 0.500000
vt 0.218750 1.000000
vt 0.187500 0.500000
vt 0.187500 1.000000
vt 0.156250 0.500000
vt 0.156250 1.000000
vt 0.125000 0.500000
vt 0.125000 1.000000
vt 0.093750 0.500000
vt 0.093750 1.000000
vt 0.062500 0.500000
vt 0.028269 0.341844
vt 0.158156 0.028269
vt 0.471731 0.158156
vt 0.062500 1.000000
vt 0.031250 0.500000
vt 0.031250 1.000000
vt 0.000000 0.500000
vt 0.985388 0.296822
vt 0.796822 0.014612
vt 0.514611 0.203179
vt 0.341844 0.471731
vt 0.296822 0.485388
vt 0.250000 0.490000
vt 0.203179 0.485389
vt 0.158156 0.471731
vt 0.116663 0.449553
vt 0.080295 0.419706
vt 0.050447 0.383337
vt 0.014612 0.296822
vt 0.010000 0.250000
vt 0.014611 0.203179
vt 0.028269 0.158156
vt 0.050447 0.116663
vt 0.080294 0.080294
vt 0.116663 0.050447
vt 0.203178 0.014612
vt 0.250000 0.010000
vt 0.296822 0.014612
vt 0.341844 0.028269
vt 0.383337 0.050447
vt 0.419706 0.080294
vt 0.449553 0.116663
vt 0.485388 0.203178
vt 0.490000 0.250000
vt 0.485388 0.296822
vt 0.471731 0.341844
vt 0.449553 0.383337
vt 0.419706 0.419706
vt 0.383337 0.449553
vt 0.000000 1.000000
vt 0.703179 0.485389
vt 0.750000 0.490000
vt 0.796822 0.485388
vt 0.841844 0.471731
vt 0.883337 0.449553
vt 0.919706 0.419706
vt 0.949553 0.383337
vt 0.971731 0.341844
vt 0.990000 0.250000
vt 0.985388 0.203178
vt 0.971731 0.158156
vt 0.949553 0.116663
vt 0.919706 0.080294
vt 0.883337 0.050447
vt 0.841844 0.028269
vt 0.750000 0.010000
vt 0.703178 0.014612
vt 0.658156 0.028269
vt 0.616663 0.050447
vt 0.580294 0.080294
vt 0.550447 0.116663
vt 0.528269 0.158156
vt 0.510000 0.250000
vt 0.514612 0.296822
vt 0.528269 0.341844
vt 0.550447 0.383337
vt 0.580295 0.419706
vt 0.616663 0.449553
vt 0.658156 0.471731
vn 0.5057 0.2650 -0.8210
vn 0.3440 0.4244 -0.8376
vn 0.1718 0.5569 -0.8126
vn 0.0018 0.6575 -0.7534
vn -0.1579 0.7265 -0.6688
vn -0.3028 0.7667 -0.5661
vn -0.4316 0.7813 -0.4509
vn -0.5440 0.7730 -0.3263
vn -0.6401 0.7434 -0.1939
vn -0.7193 0.6925 -0.0547
vn -0.7797 0.6196 0.0906
vn -0.8178 0.5230 0.2401
vn -0.8287 0.4014 0.3902
vn -0.8060 0.2552 0.5340
vn -0.7446 0.0886 0.6616
vn -0.6429 -0.0893 0.7607
vn -0.5057 -0.2650 0.8210
vn -0.3440 -0.4244 0.8376
vn -0.1718 -0.5569 0.8126
vn -0.0018 -0.6575 0.7534
vn 0.1579 -0.7265 0.6687
vn 0.3028 -0.7667 0.5661
vn 0.4316 -0.7813 0.4509
vn 0.5440 -0.7730 0.3263
vn 0.6401 -0.7434 0.1939
vn 0.7193 -0.6925 0.0547
vn 0.7797 -0.6196 -0.0906
vn 0.8178 -0.5230 -0.2401
vn 0.8287 -0.4014 -0.3902
vn 0.8060 -0.2552 -0.5340
vn -0.5592 -0.6240 -0.5458
vn 0.7446 -0.0886 -0.6616
vn 0.6429 0.0893 -0.7607
vn 0.5592 0.6240 0.5458
vn -0.1579 0.7265 -0.6687
vn -0.8178 0.5229 0.2401
vn -0.7446 0.0887 0.6616
vn -0.5056 -0.2650 0.8210
vn 0.1579 -0.7265 0.6688
vn -0.5592 -0.6240 -0.5459
vn -0.5593 -0.6240 -0.5458
vn -0.5593 -0.6239 -0.5459
vn -0.5592 -0.6239 -0.5459
vn -0.5591 -0.6241 -0.5458
vn -0.5591 -0.6240 -0.5459
vn -0.5592 -0.6239 -0.5458
vn 0.5593 0.6240 0.5458
vn 0.5592 0.6239 0.5459
vn 0.5592 0.6240 0.5459
vn 0.5593 0.6239 0.5458
vn 0.5592 0.6239 0.5458
usemtl None
s off
f 2/1/1 3/2/1 1/3/1
f 4/4/2 5/5/2 3/2/2
f 6/6/3 7/7/3 5/5/3
f 8/8/4 9/9/4 7/7/4
f 10/10/5 11/11/5 9/9/5
f 12/12/6 13/13/6 11/11/6
f 14/14/7 15/15/7 13/13/7
f 16/16/8 17/17/8 15/15/8
f 18/18/9 19/19/9 17/17/9
f 20/20/10 21/21/10 19/19/10
f 22/22/11 23/23/11 21/21/11
f 24/24/12 25/25/12 23/23/12
f 26/26/13 27/27/13 25/25/13
f 28/28/14 29/29/14 27/27/14
f 30/30/15 31/31/15 29/29/15
f 32/32/16 33/33/16 31/31/16
f 34/34/17 35/35/17 33/33/17
f 36/36/18 37/37/18 35/35/18
f 38/38/19 39/39/19 37/37/19
f 40/40/20 41/41/20 39/39/20
f 42/42/21 43/43/21 41/41/21
f 44/44/22 45/45/22 43/43/22
f 46/46/23 47/47/23 45/45/23
f 48/48/24 49/49/24 47/47/24
f 50/50/25 51/51/25 49/49/25
f 52/52/26 53/53/26 51/51/26
f 54/54/27 55/55/27 53/53/27
f 56/56/28 57/57/28 55/55/28
f 58/58/29 59/59/29 57/57/29
f 60/60/30 61/61/30 59/59/30
f 54/62/31 38/63/31 22/64/31
f 62/65/32 63/66/32 61/61/32
f 64/67/33 1/68/33 63/66/33
f 15/69/34 31/70/34 47/71/34
f 2/1/1 4/4/1 3/2/1
f 4/4/2 6/6/2 5/5/2
f 6/6/3 8/8/3 7/7/3
f 8/8/4 10/10/4 9/9/4
f 10/10/35 12/12/35 11/11/35
f 12/12/6 14/14/6 13/13/6
f 14/14/7 16/16/7 15/15/7
f 16/16/8 18/18/8 17/17/8
f 18/18/9 20/20/9 19/19/9
f 20/20/10 22/22/10 21/21/10
f 22/22/11 24/24/11 23/23/11
f 24/24/36 26/26/36 25/25/36
f 26/26/13 28/28/13 27/27/13
f 28/28/14 30/30/14 29/29/14
f 30/30/37 32/32/37 31/31/37
f 32/32/16 34/34/16 33/33/16
f 34/34/38 36/36/38 35/35/38
f 36/36/18 38/38/18 37/37/18
f 38/38/19 40/40/19 39/39/19
f 40/40/20 42/42/20 41/41/20
f 42/42/39 44/44/39 43/43/39
f 44/44/22 46/46/22 45/45/22
f 46/46/23 48/48/23 47/47/23
f 48/48/24 50/50/24 49/49/24
f 50/50/25 52/52/25 51/51/25
f 52/52/26 54/54/26 53/53/26
f 54/54/27 56/56/27 55/55/27
f 56/56/28 58/58/28 57/57/28
f 58/58/29 60/60/29 59/59/29
f 60/60/30 62/65/30 61/61/30
f 6/72/40 4/73/40 2/74/40
f 2/74/40 64/75/40 6/72/40
f 64/75/41 62/76/41 6/72/41
f 62/76/42 60/77/42 58/78/42
f 58/78/43 56/79/43 54/62/43
f 54/62/44 52/80/44 50/81/44
f 50/81/43 48/82/43 54/62/43
f 48/82/31 46/83/31 54/62/31
f 46/83/31 44/84/31 38/63/31
f 44/84/31 42/85/31 38/63/31
f 42/85/43 40/86/43 38/63/43
f 38/63/31 36/87/31 34/88/31
f 34/88/40 32/89/40 30/90/40
f 30/90/31 28/91/31 26/92/31
f 26/92/43 24/93/43 22/64/43
f 22/64/43 20/94/43 18/95/43
f 18/95/31 16/96/31 22/64/31
f 16/96/43 14/97/43 22/64/43
f 14/97/31 12/98/31 10/99/31
f 10/99/45 8/100/45 6/72/45
f 62/76/31 58/78/31 6/72/31
f 58/78/46 54/62/46 6/72/46
f 38/63/31 34/88/31 22/64/31
f 34/88/46 30/90/46 22/64/46
f 30/90/31 26/92/31 22/64/31
f 14/97/31 10/99/31 22/64/31
f 10/99/46 6/72/46 22/64/46
f 54/62/31 46/83/31 38/63/31
f 6/72/31 54/62/31 22/64/31
f 62/65/32 64/67/32 63/66/32
f 64/67/33 2/101/33 1/68/33
f 63/102/34 1/103/34 3/104/34
f 3/104/34 5/105/34 7/106/34
f 7/106/47 9/107/47 11/108/47
f 11/108/48 13/109/48 7/106/48
f 13/109/47 15/69/47 7/106/47
f 15/69/34 17/110/34 19/111/34
f 19/111/34 21/112/34 15/69/34
f 21/112/48 23/113/48 15/69/48
f 23/113/49 25/114/49 31/70/49
f 25/114/34 27/115/34 31/70/34
f 27/115/50 29/116/50 31/70/50
f 31/70/48 33/117/48 35/118/48
f 35/118/34 37/119/34 39/120/34
f 39/120/48 41/121/48 43/122/48
f 43/122/51 45/123/51 47/71/51
f 47/71/49 49/124/49 51/125/49
f 51/125/51 53/126/51 55/127/51
f 55/127/51 57/128/51 63/102/51
f 57/128/51 59/129/51 63/102/51
f 59/129/34 61/130/34 63/102/34
f 63/102/48 3/104/48 7/106/48
f 31/70/34 35/118/34 47/71/34
f 35/118/48 39/120/48 47/71/48
f 39/120/34 43/122/34 47/71/34
f 47/71/34 51/125/34 63/102/34
f 51/125/34 55/127/34 63/102/34
f 63/102/34 7/106/34 15/69/34
f 15/69/34 23/113/34 31/70/34
f 63/102/34 15/69/34 47/71/34
