# Blender v2.90.1 OBJ File: 'spider.blend'
# www.blender.org
mtllib mesh_upperleg_l4.mtl
o Cylinder.015_Cylinder.025
v 1.233294 1.904302 -0.666518
v 0.705260 1.358425 -0.273659
v 1.245701 1.889577 -0.670302
v 0.717666 1.343700 -0.277443
v 1.255953 1.874357 -0.677673
v 0.727918 1.328479 -0.284813
v 1.263655 1.859224 -0.688346
v 0.735620 1.313347 -0.295487
v 1.268512 1.844763 -0.701912
v 0.740478 1.298885 -0.309053
v 1.270338 1.831527 -0.717850
v 0.742303 1.285650 -0.324990
v 1.269061 1.820026 -0.735546
v 0.741026 1.274149 -0.342687
v 1.264731 1.810702 -0.754321
v 0.736697 1.264824 -0.361462
v 1.257515 1.803913 -0.773454
v 0.729481 1.258035 -0.380595
v 1.247690 1.799919 -0.792209
v 0.719655 1.254042 -0.399349
v 1.235633 1.798876 -0.809865
v 0.707598 1.252998 -0.417005
v 1.221808 1.800821 -0.825743
v 0.693773 1.254944 -0.432884
v 1.206745 1.805682 -0.839235
v 0.678711 1.259804 -0.446376
v 1.191025 1.813270 -0.849821
v 0.662990 1.267393 -0.456961
v 1.175250 1.823295 -0.857094
v 0.647216 1.277417 -0.464234
v 1.160028 1.835371 -0.860774
v 0.631993 1.289493 -0.467915
v 1.145943 1.849033 -0.860722
v 0.617908 1.303156 -0.467862
v 1.133536 1.863758 -0.856937
v 0.605501 1.317881 -0.464078
v 1.123284 1.878979 -0.849567
v 0.595250 1.333102 -0.456708
v 1.115582 1.894111 -0.838893
v 0.587547 1.348234 -0.446034
v 1.110725 1.908573 -0.825327
v 0.582690 1.362695 -0.432468
v 1.108899 1.921809 -0.809390
v 0.580865 1.375931 -0.416531
v 1.110176 1.933310 -0.791693
v 0.582141 1.387432 -0.398834
v 1.114505 1.942634 -0.772918
v 0.586471 1.396756 -0.380059
v 1.121722 1.949423 -0.753786
v 0.593687 1.403545 -0.360926
v 1.131547 1.953416 -0.735031
v 0.603512 1.407539 -0.342172
v 1.143604 1.954460 -0.717375
v 0.615569 1.408582 -0.324516
v 1.157429 1.952514 -0.701496
v 0.629395 1.406637 -0.308637
v 1.172492 1.947654 -0.688005
v 0.644457 1.401776 -0.295145
v 1.188212 1.940066 -0.677419
v 0.660177 1.394188 -0.284560
v 1.203987 1.930041 -0.670146
v 0.675952 1.384163 -0.277287
v 1.219209 1.917965 -0.666465
v 0.691174 1.372087 -0.273606
vt 1.000000 1.000000
vt 0.968750 0.500000
vt 1.000000 0.500000
vt 0.968750 1.000000
vt 0.937500 0.500000
vt 0.937500 1.000000
vt 0.906250 0.500000
vt 0.906250 1.000000
vt 0.875000 0.500000
vt 0.875000 1.000000
vt 0.843750 0.500000
vt 0.843750 1.000000
vt 0.812500 0.500000
vt 0.812500 1.000000
vt 0.781250 0.500000
vt 0.781250 1.000000
vt 0.750000 0.500000
vt 0.750000 1.000000
vt 0.718750 0.500000
vt 0.718750 1.000000
vt 0.687500 0.500000
vt 0.687500 1.000000
vt 0.656250 0.500000
vt 0.656250 1.000000
vt 0.625000 0.500000
vt 0.625000 1.000000
vt 0.593750 0.500000
vt 0.593750 1.000000
vt 0.562500 0.500000
vt 0.562500 1.000000
vt 0.531250 0.500000
vt 0.531250 1.000000
vt 0.500000 0.500000
vt 0.500000 1.000000
vt 0.468750 0.500000
vt 0.468750 1.000000
vt 0.437500 0.500000
vt 0.437500 1.000000
vt 0.406250 0.500000
vt 0.406250 1.000000
vt 0.375000 0.500000
vt 0.375000 1.000000
vt 0.343750 0.500000
vt 0.343750 1.000000
vt 0.312500 0.500000
vt 0.312500 1.000000
vt 0.281250 0.500000
vt 0.281250 1.000000
vt 0.250000 0.500000
vt 0.250000 1.000000
vt 0.218750 0.500000
vt 0.218750 1.000000
vt 0.187500 0.500000
vt 0.187500 1.000000
vt 0.156250 0.500000
vt 0.156250 1.000000
vt 0.125000 0.500000
vt 0.125000 1.000000
vt 0.093750 0.500000
vt 0.093750 1.000000
vt 0.062500 0.500000
vt 0.028269 0.341844
vt 0.158156 0.028269
vt 0.471731 0.158156
vt 0.062500 1.000000
vt 0.031250 0.500000
vt 0.031250 1.000000
vt 0.000000 0.500000
vt 0.985388 0.296822
vt 0.796822 0.014612
vt 0.514611 0.203179
vt 0.341844 0.471731
vt 0.296822 0.485388
vt 0.250000 0.490000
vt 0.203179 0.485389
vt 0.158156 0.471731
vt 0.116663 0.449553
vt 0.080295 0.419706
vt 0.050447 0.383337
vt 0.014612 0.296822
vt 0.010000 0.250000
vt 0.014611 0.203179
vt 0.028269 0.158156
vt 0.050447 0.116663
vt 0.080294 0.080294
vt 0.116663 0.050447
vt 0.203178 0.014612
vt 0.250000 0.010000
vt 0.296822 0.014612
vt 0.341844 0.028269
vt 0.383337 0.050447
vt 0.419706 0.080294
vt 0.449553 0.116663
vt 0.485388 0.203178
vt 0.490000 0.250000
vt 0.485388 0.296822
vt 0.471731 0.341844
vt 0.449553 0.383337
vt 0.419706 0.419706
vt 0.383337 0.449553
vt 0.000000 1.000000
vt 0.703179 0.485389
vt 0.750000 0.490000
vt 0.796822 0.485388
vt 0.841844 0.471731
vt 0.883337 0.449553
vt 0.919706 0.419706
vt 0.949553 0.383337
vt 0.971731 0.341844
vt 0.990000 0.250000
vt 0.985388 0.203178
vt 0.971731 0.158156
vt 0.949553 0.116663
vt 0.919706 0.080294
vt 0.883337 0.050447
vt 0.841844 0.028269
vt 0.750000 0.010000
vt 0.703178 0.014612
vt 0.658156 0.028269
vt 0.616663 0.050447
vt 0.580294 0.080294
vt 0.550447 0.116663
vt 0.528269 0.158156
vt 0.510000 0.250000
vt 0.514612 0.296822
vt 0.528269 0.341844
vt 0.550447 0.383337
vt 0.580295 0.419706
vt 0.616663 0.449553
vt 0.658156 0.471731
vn 0.4679 0.1714 0.8670
vn 0.5916 0.0080 0.8062
vn 0.6864 -0.1522 0.7111
vn 0.7497 -0.3010 0.5893
vn 0.7816 -0.4329 0.4490
vn 0.7842 -0.5446 0.2974
vn 0.7601 -0.6346 0.1399
vn 0.7117 -0.7022 -0.0192
vn 0.6409 -0.7471 -0.1767
vn 0.5490 -0.7682 -0.3295
vn 0.4372 -0.7642 -0.4743
vn 0.3068 -0.7334 -0.6067
vn 0.1602 -0.6740 -0.7211
vn 0.0019 -0.5853 -0.8108
vn -0.1617 -0.4686 -0.8685
vn -0.3216 -0.3281 -0.8882
vn -0.4679 -0.1714 -0.8670
vn -0.5915 -0.0080 -0.8062
vn -0.6864 0.1522 -0.7111
vn -0.7497 0.3010 -0.5893
vn -0.7816 0.4329 -0.4490
vn -0.7842 0.5446 -0.2974
vn -0.7601 0.6346 -0.1399
vn -0.7117 0.7022 0.0192
vn -0.6409 0.7471 0.1767
vn -0.5490 0.7682 0.3295
vn -0.4372 0.7642 0.4743
vn -0.3068 0.7334 0.6067
vn -0.1602 0.6740 0.7211
vn -0.0019 0.5853 0.8108
vn -0.6175 -0.6384 0.4594
vn 0.1617 0.4686 0.8685
vn 0.3216 0.3281 0.8882
vn 0.6175 0.6384 -0.4594
vn 0.5915 0.0080 0.8062
vn -0.5916 -0.0080 -0.8062
vn -0.6175 -0.6384 0.4595
vn -0.6176 -0.6383 0.4595
vn -0.6176 -0.6384 0.4594
vn 0.6175 0.6384 -0.4595
vn 0.6176 0.6384 -0.4594
vn 0.6176 0.6384 -0.4595
vn 0.6175 0.6385 -0.4594
usemtl None
s off
f 2/1/1 3/2/1 1/3/1
f 4/4/2 5/5/2 3/2/2
f 6/6/3 7/7/3 5/5/3
f 8/8/4 9/9/4 7/7/4
f 10/10/5 11/11/5 9/9/5
f 12/12/6 13/13/6 11/11/6
f 14/14/7 15/15/7 13/13/7
f 16/16/8 17/17/8 15/15/8
f 18/18/9 19/19/9 17/17/9
f 20/20/10 21/21/10 19/19/10
f 22/22/11 23/23/11 21/21/11
f 24/24/12 25/25/12 23/23/12
f 26/26/13 27/27/13 25/25/13
f 28/28/14 29/29/14 27/27/14
f 30/30/15 31/31/15 29/29/15
f 32/32/16 33/33/16 31/31/16
f 34/34/17 35/35/17 33/33/17
f 36/36/18 37/37/18 35/35/18
f 38/38/19 39/39/19 37/37/19
f 40/40/20 41/41/20 39/39/20
f 42/42/21 43/43/21 41/41/21
f 44/44/22 45/45/22 43/43/22
f 46/46/23 47/47/23 45/45/23
f 48/48/24 49/49/24 47/47/24
f 50/50/25 51/51/25 49/49/25
f 52/52/26 53/53/26 51/51/26
f 54/54/27 55/55/27 53/53/27
f 56/56/28 57/57/28 55/55/28
f 58/58/29 59/59/29 57/57/29
f 60/60/30 61/61/30 59/59/30
f 54/62/31 38/63/31 22/64/31
f 62/65/32 63/66/32 61/61/32
f 64/67/33 1/68/33 63/66/33
f 15/69/34 31/70/34 47/71/34
f 2/1/1 4/4/1 3/2/1
f 4/4/35 6/6/35 5/5/35
f 6/6/3 8/8/3 7/7/3
f 8/8/4 10/10/4 9/9/4
f 10/10/5 12/12/5 11/11/5
f 12/12/6 14/14/6 13/13/6
f 14/14/7 16/16/7 15/15/7
f 16/16/8 18/18/8 17/17/8
f 18/18/9 20/20/9 19/19/9
f 20/20/10 22/22/10 21/21/10
f 22/22/11 24/24/11 23/23/11
f 24/24/12 26/26/12 25/25/12
f 26/26/13 28/28/13 27/27/13
f 28/28/14 30/30/14 29/29/14
f 30/30/15 32/32/15 31/31/15
f 32/32/16 34/34/16 33/33/16
f 34/34/17 36/36/17 35/35/17
f 36/36/36 38/38/36 37/37/36
f 38/38/19 40/40/19 39/39/19
f 40/40/20 42/42/20 41/41/20
f 42/42/21 44/44/21 43/43/21
f 44/44/22 46/46/22 45/45/22
f 46/46/23 48/48/23 47/47/23
f 48/48/24 50/50/24 49/49/24
f 50/50/25 52/52/25 51/51/25
f 52/52/26 54/54/26 53/53/26
f 54/54/27 56/56/27 55/55/27
f 56/56/28 58/58/28 57/57/28
f 58/58/29 60/60/29 59/59/29
f 60/60/30 62/65/30 61/61/30
f 6/72/37 4/73/37 2/74/37
f 2/74/31 64/75/31 6/72/31
f 64/75/31 62/76/31 6/72/31
f 62/76/37 60/77/37 58/78/37
f 58/78/37 56/79/37 54/62/37
f 54/62/38 52/80/38 50/81/38
f 50/81/31 48/82/31 54/62/31
f 48/82/31 46/83/31 54/62/31
f 46/83/31 44/84/31 38/63/31
f 44/84/31 42/85/31 38/63/31
f 42/85/37 40/86/37 38/63/37
f 38/63/31 36/87/31 34/88/31
f 34/88/37 32/89/37 30/90/37
f 30/90/31 28/91/31 26/92/31
f 26/92/37 24/93/37 22/64/37
f 22/64/39 20/94/39 18/95/39
f 18/95/31 16/96/31 22/64/31
f 16/96/37 14/97/37 22/64/37
f 14/97/37 12/98/37 10/99/37
f 10/99/31 8/100/31 6/72/31
f 62/76/31 58/78/31 6/72/31
f 58/78/31 54/62/31 6/72/31
f 38/63/37 34/88/37 22/64/37
f 34/88/31 30/90/31 22/64/31
f 30/90/31 26/92/31 22/64/31
f 14/97/31 10/99/31 22/64/31
f 10/99/37 6/72/37 22/64/37
f 54/62/31 46/83/31 38/63/31
f 6/72/31 54/62/31 22/64/31
f 62/65/32 64/67/32 63/66/32
f 64/67/33 2/101/33 1/68/33
f 63/102/40 1/103/40 3/104/40
f 3/104/40 5/105/40 7/106/40
f 7/106/40 9/107/40 11/108/40
f 11/108/41 13/109/41 7/106/41
f 13/109/40 15/69/40 7/106/40
f 15/69/42 17/110/42 19/111/42
f 19/111/34 21/112/34 15/69/34
f 21/112/34 23/113/34 15/69/34
f 23/113/40 25/114/40 31/70/40
f 25/114/34 27/115/34 31/70/34
f 27/115/40 29/116/40 31/70/40
f 31/70/40 33/117/40 35/118/40
f 35/118/41 37/119/41 39/120/41
f 39/120/34 41/121/34 43/122/34
f 43/122/41 45/123/41 47/71/41
f 47/71/40 49/124/40 51/125/40
f 51/125/43 53/126/43 55/127/43
f 55/127/40 57/128/40 63/102/40
f 57/128/34 59/129/34 63/102/34
f 59/129/40 61/130/40 63/102/40
f 63/102/34 3/104/34 7/106/34
f 31/70/34 35/118/34 47/71/34
f 35/118/40 39/120/40 47/71/40
f 39/120/34 43/122/34 47/71/34
f 47/71/34 51/125/34 63/102/34
f 51/125/34 55/127/34 63/102/34
f 63/102/34 7/106/34 15/69/34
f 15/69/34 23/113/34 31/70/34
f 63/102/34 15/69/34 47/71/34
