# Blender v2.90.1 OBJ File: 'spider.blend'
# www.blender.org
mtllib mesh_upperleg_l2.mtl
o Cylinder.011_Cylinder.021
v 1.384364 1.904302 0.465046
v 0.733153 1.358425 0.369741
v 1.395815 1.889577 0.471138
v 0.744604 1.343700 0.375833
v 1.408277 1.874357 0.473170
v 0.757066 1.328479 0.377865
v 1.421270 1.859224 0.471064
v 0.770058 1.313347 0.375759
v 1.434294 1.844763 0.464900
v 0.783083 1.298885 0.369595
v 1.446850 1.831527 0.454916
v 0.795639 1.285650 0.359611
v 1.458455 1.820026 0.441495
v 0.807244 1.274149 0.346190
v 1.468663 1.810702 0.425153
v 0.817451 1.264824 0.329848
v 1.477081 1.803913 0.406518
v 0.825870 1.258035 0.311213
v 1.483386 1.799919 0.386306
v 0.832175 1.254042 0.291002
v 1.487336 1.798876 0.365294
v 0.836125 1.252998 0.269990
v 1.488779 1.800821 0.344290
v 0.837568 1.254944 0.248985
v 1.487660 1.805682 0.324099
v 0.836449 1.259804 0.228795
v 1.484021 1.813270 0.305500
v 0.832810 1.267393 0.210195
v 1.478003 1.823295 0.289205
v 0.826791 1.277417 0.193901
v 1.469836 1.835370 0.275842
v 0.818625 1.289493 0.180538
v 1.459835 1.849033 0.265924
v 0.808623 1.303156 0.170619
v 1.448383 1.863758 0.259832
v 0.797172 1.317881 0.164527
v 1.435922 1.878979 0.257800
v 0.784710 1.333102 0.162495
v 1.422929 1.894111 0.259906
v 0.771717 1.348234 0.164602
v 1.409904 1.908573 0.266070
v 0.758693 1.362695 0.170765
v 1.397348 1.921808 0.276054
v 0.746137 1.375931 0.180749
v 1.385743 1.933309 0.289475
v 0.734532 1.387432 0.194170
v 1.375536 1.942634 0.305817
v 0.724324 1.396756 0.210512
v 1.367118 1.949423 0.324452
v 0.715906 1.403545 0.229147
v 1.360812 1.953416 0.344664
v 0.709601 1.407539 0.249359
v 1.356862 1.954460 0.365676
v 0.705651 1.408582 0.270371
v 1.355419 1.952514 0.386680
v 0.704208 1.406637 0.291376
v 1.356539 1.947654 0.406870
v 0.705327 1.401776 0.311566
v 1.360177 1.940065 0.425470
v 0.708966 1.394188 0.330166
v 1.366196 1.930041 0.441765
v 0.714985 1.384163 0.346460
v 1.374363 1.917965 0.455128
v 0.723151 1.372087 0.359823
vt 1.000000 1.000000
vt 0.968750 0.500000
vt 1.000000 0.500000
vt 0.968750 1.000000
vt 0.937500 0.500000
vt 0.937500 1.000000
vt 0.906250 0.500000
vt 0.906250 1.000000
vt 0.875000 0.500000
vt 0.875000 1.000000
vt 0.843750 0.500000
vt 0.843750 1.000000
vt 0.812500 0.500000
vt 0.812500 1.000000
vt 0.781250 0.500000
vt 0.781250 1.000000
vt 0.750000 0.500000
vt 0.750000 1.000000
vt 0.718750 0.500000
vt 0.718750 1.000000
vt 0.687500 0.500000
vt 0.687500 1.000000
vt 0.656250 0.500000
vt 0.656250 1.000000
vt 0.625000 0.500000
vt 0.625000 1.000000
vt 0.593750 0.500000
vt 0.593750 1.000000
vt 0.562500 0.500000
vt 0.562500 1.000000
vt 0.531250 0.500000
vt 0.531250 1.000000
vt 0.500000 0.500000
vt 0.500000 1.000000
vt 0.468750 0.500000
vt 0.468750 1.000000
vt 0.437500 0.500000
vt 0.437500 1.000000
vt 0.406250 0.500000
vt 0.406250 1.000000
vt 0.375000 0.500000
vt 0.375000 1.000000
vt 0.343750 0.500000
vt 0.343750 1.000000
vt 0.312500 0.500000
vt 0.312500 1.000000
vt 0.281250 0.500000
vt 0.281250 1.000000
vt 0.250000 0.500000
vt 0.250000 1.000000
vt 0.218750 0.500000
vt 0.218750 1.000000
vt 0.187500 0.500000
vt 0.187500 1.000000
vt 0.156250 0.500000
vt 0.156250 1.000000
vt 0.125000 0.500000
vt 0.125000 1.000000
vt 0.093750 0.500000
vt 0.093750 1.000000
vt 0.062500 0.500000
vt 0.028269 0.341844
vt 0.158156 0.028269
vt 0.471731 0.158156
vt 0.062500 1.000000
vt 0.031250 0.500000
vt 0.031250 1.000000
vt 0.000000 0.500000
vt 0.985388 0.296822
vt 0.796822 0.014612
vt 0.514611 0.203179
vt 0.341844 0.471731
vt 0.296822 0.485388
vt 0.250000 0.490000
vt 0.203179 0.485389
vt 0.158156 0.471731
vt 0.116663 0.449553
vt 0.080295 0.419706
vt 0.050447 0.383337
vt 0.014612 0.296822
vt 0.010000 0.250000
vt 0.014611 0.203179
vt 0.028269 0.158156
vt 0.050447 0.116663
vt 0.080294 0.080294
vt 0.116663 0.050447
vt 0.203178 0.014612
vt 0.250000 0.010000
vt 0.296822 0.014612
vt 0.341844 0.028269
vt 0.383337 0.050447
vt 0.419706 0.080294
vt 0.449553 0.116663
vt 0.485388 0.203178
vt 0.490000 0.250000
vt 0.485388 0.296822
vt 0.471731 0.341844
vt 0.449553 0.383337
vt 0.419706 0.419706
vt 0.383337 0.449553
vt 0.000000 1.000000
vt 0.703179 0.485389
vt 0.750000 0.490000
vt 0.796822 0.485388
vt 0.841844 0.471731
vt 0.883337 0.449553
vt 0.919706 0.419706
vt 0.949553 0.383337
vt 0.971731 0.341844
vt 0.990000 0.250000
vt 0.985388 0.203178
vt 0.971731 0.158156
vt 0.949553 0.116663
vt 0.919706 0.080294
vt 0.883337 0.050447
vt 0.841844 0.028269
vt 0.750000 0.010000
vt 0.703178 0.014612
vt 0.658156 0.028269
vt 0.616663 0.050447
vt 0.580294 0.080294
vt 0.550447 0.116663
vt 0.528269 0.158156
vt 0.510000 0.250000
vt 0.514612 0.296822
vt 0.528269 0.341844
vt 0.550447 0.383337
vt 0.580295 0.419706
vt 0.616663 0.449553
vt 0.658156 0.471731
vn -0.2818 0.1714 0.9440
vn -0.1514 0.0080 0.9884
vn -0.0170 -0.1522 0.9882
vn 0.1138 -0.3010 0.9468
vn 0.2355 -0.4329 0.8701
vn 0.3446 -0.5446 0.7646
vn 0.4388 -0.6346 0.6362
vn 0.5170 -0.7022 0.4894
vn 0.5782 -0.7471 0.3280
vn 0.6212 -0.7682 0.1549
vn 0.6445 -0.7642 -0.0265
vn 0.6458 -0.7334 -0.2124
vn 0.6231 -0.6740 -0.3969
vn 0.5744 -0.5853 -0.5723
vn 0.4994 -0.4686 -0.7287
vn 0.4003 -0.3281 -0.8556
vn 0.2818 -0.1714 -0.9440
vn 0.1514 -0.0080 -0.9884
vn 0.0170 0.1522 -0.9882
vn -0.1138 0.3010 -0.9468
vn -0.2355 0.4329 -0.8701
vn -0.3446 0.5446 -0.7646
vn -0.4388 0.6346 -0.6362
vn -0.5170 0.7022 -0.4894
vn -0.5782 0.7471 -0.3280
vn -0.6212 0.7682 -0.1549
vn -0.6445 0.7642 0.0265
vn -0.6458 0.7334 0.2124
vn -0.6231 0.6740 0.3969
vn -0.5744 0.5853 0.5723
vn -0.7616 -0.6384 -0.1115
vn -0.4994 0.4686 0.7287
vn -0.4003 0.3281 0.8556
vn 0.7616 0.6384 0.1115
vn 0.6458 -0.7334 -0.2123
vn -0.6212 0.7682 -0.1550
vn -0.7616 -0.6384 -0.1114
vn -0.7616 -0.6384 -0.1116
vn -0.7615 -0.6385 -0.1115
vn 0.7616 0.6384 0.1114
vn 0.7616 0.6384 0.1116
usemtl None
s off
f 2/1/1 3/2/1 1/3/1
f 4/4/2 5/5/2 3/2/2
f 6/6/3 7/7/3 5/5/3
f 8/8/4 9/9/4 7/7/4
f 10/10/5 11/11/5 9/9/5
f 12/12/6 13/13/6 11/11/6
f 14/14/7 15/15/7 13/13/7
f 16/16/8 17/17/8 15/15/8
f 18/18/9 19/19/9 17/17/9
f 20/20/10 21/21/10 19/19/10
f 22/22/11 23/23/11 21/21/11
f 24/24/12 25/25/12 23/23/12
f 26/26/13 27/27/13 25/25/13
f 28/28/14 29/29/14 27/27/14
f 30/30/15 31/31/15 29/29/15
f 32/32/16 33/33/16 31/31/16
f 34/34/17 35/35/17 33/33/17
f 36/36/18 37/37/18 35/35/18
f 38/38/19 39/39/19 37/37/19
f 40/40/20 41/41/20 39/39/20
f 42/42/21 43/43/21 41/41/21
f 44/44/22 45/45/22 43/43/22
f 46/46/23 47/47/23 45/45/23
f 48/48/24 49/49/24 47/47/24
f 50/50/25 51/51/25 49/49/25
f 52/52/26 53/53/26 51/51/26
f 54/54/27 55/55/27 53/53/27
f 56/56/28 57/57/28 55/55/28
f 58/58/29 59/59/29 57/57/29
f 60/60/30 61/61/30 59/59/30
f 54/62/31 38/63/31 22/64/31
f 62/65/32 63/66/32 61/61/32
f 64/67/33 1/68/33 63/66/33
f 15/69/34 31/70/34 47/71/34
f 2/1/1 4/4/1 3/2/1
f 4/4/2 6/6/2 5/5/2
f 6/6/3 8/8/3 7/7/3
f 8/8/4 10/10/4 9/9/4
f 10/10/5 12/12/5 11/11/5
f 12/12/6 14/14/6 13/13/6
f 14/14/7 16/16/7 15/15/7
f 16/16/8 18/18/8 17/17/8
f 18/18/9 20/20/9 19/19/9
f 20/20/10 22/22/10 21/21/10
f 22/22/11 24/24/11 23/23/11
f 24/24/35 26/26/35 25/25/35
f 26/26/13 28/28/13 27/27/13
f 28/28/14 30/30/14 29/29/14
f 30/30/15 32/32/15 31/31/15
f 32/32/16 34/34/16 33/33/16
f 34/34/17 36/36/17 35/35/17
f 36/36/18 38/38/18 37/37/18
f 38/38/19 40/40/19 39/39/19
f 40/40/20 42/42/20 41/41/20
f 42/42/21 44/44/21 43/43/21
f 44/44/22 46/46/22 45/45/22
f 46/46/23 48/48/23 47/47/23
f 48/48/24 50/50/24 49/49/24
f 50/50/25 52/52/25 51/51/25
f 52/52/36 54/54/36 53/53/36
f 54/54/27 56/56/27 55/55/27
f 56/56/28 58/58/28 57/57/28
f 58/58/29 60/60/29 59/59/29
f 60/60/30 62/65/30 61/61/30
f 6/72/31 4/73/31 2/74/31
f 2/74/31 64/75/31 6/72/31
f 64/75/37 62/76/37 6/72/37
f 62/76/31 60/77/31 58/78/31
f 58/78/31 56/79/31 54/62/31
f 54/62/31 52/80/31 50/81/31
f 50/81/31 48/82/31 54/62/31
f 48/82/31 46/83/31 54/62/31
f 46/83/31 44/84/31 38/63/31
f 44/84/31 42/85/31 38/63/31
f 42/85/37 40/86/37 38/63/37
f 38/63/38 36/87/38 34/88/38
f 34/88/31 32/89/31 30/90/31
f 30/90/31 28/91/31 26/92/31
f 26/92/39 24/93/39 22/64/39
f 22/64/31 20/94/31 18/95/31
f 18/95/31 16/96/31 22/64/31
f 16/96/31 14/97/31 22/64/31
f 14/97/37 12/98/37 10/99/37
f 10/99/37 8/100/37 6/72/37
f 62/76/31 58/78/31 6/72/31
f 58/78/31 54/62/31 6/72/31
f 38/63/31 34/88/31 22/64/31
f 34/88/31 30/90/31 22/64/31
f 30/90/31 26/92/31 22/64/31
f 14/97/31 10/99/31 22/64/31
f 10/99/31 6/72/31 22/64/31
f 54/62/31 46/83/31 38/63/31
f 6/72/31 54/62/31 22/64/31
f 62/65/32 64/67/32 63/66/32
f 64/67/33 2/101/33 1/68/33
f 63/102/34 1/103/34 3/104/34
f 3/104/40 5/105/40 7/106/40
f 7/106/41 9/107/41 11/108/41
f 11/108/34 13/109/34 7/106/34
f 13/109/40 15/69/40 7/106/40
f 15/69/34 17/110/34 19/111/34
f 19/111/34 21/112/34 15/69/34
f 21/112/34 23/113/34 15/69/34
f 23/113/34 25/114/34 31/70/34
f 25/114/34 27/115/34 31/70/34
f 27/115/34 29/116/34 31/70/34
f 31/70/40 33/117/40 35/118/40
f 35/118/40 37/119/40 39/120/40
f 39/120/34 41/121/34 43/122/34
f 43/122/40 45/123/40 47/71/40
f 47/71/34 49/124/34 51/125/34
f 51/125/34 53/126/34 55/127/34
f 55/127/40 57/128/40 63/102/40
f 57/128/34 59/129/34 63/102/34
f 59/129/40 61/130/40 63/102/40
f 63/102/34 3/104/34 7/106/34
f 31/70/34 35/118/34 47/71/34
f 35/118/34 39/120/34 47/71/34
f 39/120/34 43/122/34 47/71/34
f 47/71/34 51/125/34 63/102/34
f 51/125/34 55/127/34 63/102/34
f 63/102/34 7/106/34 15/69/34
f 15/69/34 23/113/34 31/70/34
f 63/102/34 15/69/34 47/71/34
