# Blender v2.90.1 OBJ File: 'spider.blend'
# www.blender.org
mtllib mesh_lowerleg_l2.mtl
o Cylinder.010_Cylinder.020
v 1.472970 1.988208 0.485202
v 3.188534 0.585187 0.865397
v 1.485472 2.002425 0.481254
v 3.201035 0.599404 0.861450
v 1.497813 2.015298 0.473074
v 3.213376 0.612278 0.853270
v 1.509519 2.026334 0.460976
v 3.225083 0.623313 0.841172
v 1.520141 2.035108 0.445424
v 3.235704 0.632087 0.825620
v 1.529270 2.041283 0.427017
v 3.244834 0.638262 0.807212
v 1.536556 2.044621 0.406461
v 3.252119 0.641600 0.786657
v 1.541718 2.044995 0.384547
v 3.257281 0.641974 0.764743
v 1.544558 2.042389 0.362117
v 3.260122 0.639369 0.742312
v 1.544967 2.036905 0.340032
v 3.260530 0.633884 0.720228
v 1.542930 2.028752 0.319142
v 3.258493 0.625732 0.699338
v 1.538523 2.018245 0.300249
v 3.254087 0.615224 0.680445
v 1.531918 2.005787 0.284079
v 3.247481 0.602766 0.664275
v 1.523367 1.991856 0.271254
v 3.238931 0.588835 0.651450
v 1.513200 1.976988 0.262267
v 3.228763 0.573967 0.642463
v 1.501807 1.961755 0.257463
v 3.217370 0.558734 0.637658
v 1.489625 1.946741 0.257026
v 3.205189 0.543720 0.637221
v 1.477124 1.932524 0.260973
v 3.192687 0.529504 0.641168
v 1.464783 1.919651 0.269153
v 3.180346 0.516630 0.649348
v 1.453076 1.908615 0.281251
v 3.168639 0.505594 0.661447
v 1.442454 1.899841 0.296803
v 3.158018 0.496820 0.676998
v 1.433325 1.893667 0.315210
v 3.148888 0.490646 0.695406
v 1.426039 1.890328 0.335766
v 3.141603 0.487307 0.715962
v 1.420877 1.889955 0.357680
v 3.136441 0.486934 0.737876
v 1.418037 1.892560 0.380111
v 3.133600 0.489539 0.760306
v 1.417628 1.898044 0.402195
v 3.133192 0.495024 0.782391
v 1.419666 1.906197 0.423085
v 3.135229 0.503176 0.803281
v 1.424072 1.916704 0.441978
v 3.139635 0.513684 0.822174
v 1.430677 1.929163 0.458148
v 3.146241 0.526142 0.838343
v 1.439228 1.943094 0.470973
v 3.154791 0.540073 0.851168
v 1.449395 1.957961 0.479960
v 3.164959 0.554941 0.860156
v 1.460789 1.973195 0.484765
v 3.176352 0.570174 0.864960
vt 1.000000 1.000000
vt 0.968750 0.500000
vt 1.000000 0.500000
vt 0.968750 1.000000
vt 0.937500 0.500000
vt 0.937500 1.000000
vt 0.906250 0.500000
vt 0.906250 1.000000
vt 0.875000 0.500000
vt 0.875000 1.000000
vt 0.843750 0.500000
vt 0.843750 1.000000
vt 0.812500 0.500000
vt 0.812500 1.000000
vt 0.781250 0.500000
vt 0.781250 1.000000
vt 0.750000 0.500000
vt 0.750000 1.000000
vt 0.718750 0.500000
vt 0.718750 1.000000
vt 0.687500 0.500000
vt 0.687500 1.000000
vt 0.656250 0.500000
vt 0.656250 1.000000
vt 0.625000 0.500000
vt 0.625000 1.000000
vt 0.593750 0.500000
vt 0.593750 1.000000
vt 0.562500 0.500000
vt 0.562500 1.000000
vt 0.531250 0.500000
vt 0.531250 1.000000
vt 0.500000 0.500000
vt 0.500000 1.000000
vt 0.468750 0.500000
vt 0.468750 1.000000
vt 0.437500 0.500000
vt 0.437500 1.000000
vt 0.406250 0.500000
vt 0.406250 1.000000
vt 0.375000 0.500000
vt 0.375000 1.000000
vt 0.343750 0.500000
vt 0.343750 1.000000
vt 0.312500 0.500000
vt 0.312500 1.000000
vt 0.281250 0.500000
vt 0.281250 1.000000
vt 0.250000 0.500000
vt 0.250000 1.000000
vt 0.218750 0.500000
vt 0.218750 1.000000
vt 0.187500 0.500000
vt 0.187500 1.000000
vt 0.156250 0.500000
vt 0.156250 1.000000
vt 0.125000 0.500000
vt 0.125000 1.000000
vt 0.093750 0.500000
vt 0.093750 1.000000
vt 0.062500 0.500000
vt 0.028269 0.341844
vt 0.158156 0.028269
vt 0.471731 0.158156
vt 0.062500 1.000000
vt 0.031250 0.500000
vt 0.031250 1.000000
vt 0.000000 0.500000
vt 0.985388 0.296822
vt 0.796822 0.014612
vt 0.514611 0.203179
vt 0.341844 0.471731
vt 0.296822 0.485388
vt 0.250000 0.490000
vt 0.203179 0.485389
vt 0.158156 0.471731
vt 0.116663 0.449553
vt 0.080295 0.419706
vt 0.050447 0.383337
vt 0.014612 0.296822
vt 0.010000 0.250000
vt 0.014611 0.203179
vt 0.028269 0.158156
vt 0.050447 0.116663
vt 0.080294 0.080294
vt 0.116663 0.050447
vt 0.203178 0.014612
vt 0.250000 0.010000
vt 0.296822 0.014612
vt 0.341844 0.028269
vt 0.383337 0.050447
vt 0.419706 0.080294
vt 0.449553 0.116663
vt 0.485388 0.203178
vt 0.490000 0.250000
vt 0.485388 0.296822
vt 0.471731 0.341844
vt 0.449553 0.383337
vt 0.419706 0.419706
vt 0.383337 0.449553
vt 0.000000 1.000000
vt 0.703179 0.485389
vt 0.750000 0.490000
vt 0.796822 0.485388
vt 0.841844 0.471731
vt 0.883337 0.449553
vt 0.919706 0.419706
vt 0.949553 0.383337
vt 0.971731 0.341844
vt 0.990000 0.250000
vt 0.985388 0.203178
vt 0.971731 0.158156
vt 0.949553 0.116663
vt 0.919706 0.080294
vt 0.883337 0.050447
vt 0.841844 0.028269
vt 0.750000 0.010000
vt 0.703178 0.014612
vt 0.658156 0.028269
vt 0.616663 0.050447
vt 0.580294 0.080294
vt 0.550447 0.116663
vt 0.528269 0.158156
vt 0.510000 0.250000
vt 0.514612 0.296822
vt 0.528269 0.341844
vt 0.550447 0.383337
vt 0.580295 0.419706
vt 0.616663 0.449553
vt 0.658156 0.471731
vn 0.0031 0.2650 0.9642
vn 0.1492 0.4244 0.8931
vn 0.2823 0.5569 0.7811
vn 0.3956 0.6575 0.6412
vn 0.4867 0.7265 0.4851
vn 0.5558 0.7667 0.3215
vn 0.6044 0.7813 0.1557
vn 0.6343 0.7730 -0.0095
vn 0.6462 0.7434 -0.1726
vn 0.6401 0.6925 -0.3327
vn 0.6148 0.6196 -0.4880
vn 0.5684 0.5230 -0.6351
vn 0.4985 0.4014 -0.7684
vn 0.4035 0.2552 -0.8787
vn 0.2841 0.0886 -0.9547
vn 0.1454 -0.0893 -0.9853
vn -0.0031 -0.2650 -0.9642
vn -0.1492 -0.4244 -0.8931
vn -0.2823 -0.5569 -0.7811
vn -0.3956 -0.6575 -0.6412
vn -0.4867 -0.7265 -0.4851
vn -0.5558 -0.7667 -0.3215
vn -0.6044 -0.7813 -0.1557
vn -0.6343 -0.7730 0.0095
vn -0.6462 -0.7434 0.1727
vn -0.6401 -0.6925 0.3327
vn -0.6148 -0.6196 0.4880
vn -0.5684 -0.5230 0.6351
vn -0.4985 -0.4014 0.7684
vn -0.4035 -0.2552 0.8787
vn 0.7629 -0.6240 0.1691
vn -0.2841 -0.0886 0.9547
vn -0.1454 0.0893 0.9853
vn -0.7630 0.6240 -0.1691
vn -0.6462 -0.7434 0.1726
vn 0.7630 -0.6240 0.1691
vn 0.7630 -0.6239 0.1691
vn 0.7631 -0.6238 0.1691
vn -0.7629 0.6240 -0.1691
vn -0.7630 0.6239 -0.1691
vn -0.7629 0.6241 -0.1691
vn -0.7629 0.6239 -0.1691
usemtl None
s off
f 2/1/1 3/2/1 1/3/1
f 4/4/2 5/5/2 3/2/2
f 6/6/3 7/7/3 5/5/3
f 8/8/4 9/9/4 7/7/4
f 10/10/5 11/11/5 9/9/5
f 12/12/6 13/13/6 11/11/6
f 14/14/7 15/15/7 13/13/7
f 16/16/8 17/17/8 15/15/8
f 18/18/9 19/19/9 17/17/9
f 20/20/10 21/21/10 19/19/10
f 22/22/11 23/23/11 21/21/11
f 24/24/12 25/25/12 23/23/12
f 26/26/13 27/27/13 25/25/13
f 28/28/14 29/29/14 27/27/14
f 30/30/15 31/31/15 29/29/15
f 32/32/16 33/33/16 31/31/16
f 34/34/17 35/35/17 33/33/17
f 36/36/18 37/37/18 35/35/18
f 38/38/19 39/39/19 37/37/19
f 40/40/20 41/41/20 39/39/20
f 42/42/21 43/43/21 41/41/21
f 44/44/22 45/45/22 43/43/22
f 46/46/23 47/47/23 45/45/23
f 48/48/24 49/49/24 47/47/24
f 50/50/25 51/51/25 49/49/25
f 52/52/26 53/53/26 51/51/26
f 54/54/27 55/55/27 53/53/27
f 56/56/28 57/57/28 55/55/28
f 58/58/29 59/59/29 57/57/29
f 60/60/30 61/61/30 59/59/30
f 54/62/31 38/63/31 22/64/31
f 62/65/32 63/66/32 61/61/32
f 64/67/33 1/68/33 63/66/33
f 15/69/34 31/70/34 47/71/34
f 2/1/1 4/4/1 3/2/1
f 4/4/2 6/6/2 5/5/2
f 6/6/3 8/8/3 7/7/3
f 8/8/4 10/10/4 9/9/4
f 10/10/5 12/12/5 11/11/5
f 12/12/6 14/14/6 13/13/6
f 14/14/7 16/16/7 15/15/7
f 16/16/8 18/18/8 17/17/8
f 18/18/9 20/20/9 19/19/9
f 20/20/10 22/22/10 21/21/10
f 22/22/11 24/24/11 23/23/11
f 24/24/12 26/26/12 25/25/12
f 26/26/13 28/28/13 27/27/13
f 28/28/14 30/30/14 29/29/14
f 30/30/15 32/32/15 31/31/15
f 32/32/16 34/34/16 33/33/16
f 34/34/17 36/36/17 35/35/17
f 36/36/18 38/38/18 37/37/18
f 38/38/19 40/40/19 39/39/19
f 40/40/20 42/42/20 41/41/20
f 42/42/21 44/44/21 43/43/21
f 44/44/22 46/46/22 45/45/22
f 46/46/23 48/48/23 47/47/23
f 48/48/24 50/50/24 49/49/24
f 50/50/35 52/52/35 51/51/35
f 52/52/26 54/54/26 53/53/26
f 54/54/27 56/56/27 55/55/27
f 56/56/28 58/58/28 57/57/28
f 58/58/29 60/60/29 59/59/29
f 60/60/30 62/65/30 61/61/30
f 6/72/36 4/73/36 2/74/36
f 2/74/36 64/75/36 6/72/36
f 64/75/37 62/76/37 6/72/37
f 62/76/31 60/77/31 58/78/31
f 58/78/31 56/79/31 54/62/31
f 54/62/38 52/80/38 50/81/38
f 50/81/37 48/82/37 54/62/37
f 48/82/31 46/83/31 54/62/31
f 46/83/31 44/84/31 38/63/31
f 44/84/37 42/85/37 38/63/37
f 42/85/37 40/86/37 38/63/37
f 38/63/37 36/87/37 34/88/37
f 34/88/37 32/89/37 30/90/37
f 30/90/31 28/91/31 26/92/31
f 26/92/31 24/93/31 22/64/31
f 22/64/38 20/94/38 18/95/38
f 18/95/37 16/96/37 22/64/37
f 16/96/37 14/97/37 22/64/37
f 14/97/31 12/98/31 10/99/31
f 10/99/37 8/100/37 6/72/37
f 62/76/36 58/78/36 6/72/36
f 58/78/31 54/62/31 6/72/31
f 38/63/37 34/88/37 22/64/37
f 34/88/31 30/90/31 22/64/31
f 30/90/31 26/92/31 22/64/31
f 14/97/31 10/99/31 22/64/31
f 10/99/31 6/72/31 22/64/31
f 54/62/31 46/83/31 38/63/31
f 6/72/31 54/62/31 22/64/31
f 62/65/32 64/67/32 63/66/32
f 64/67/33 2/101/33 1/68/33
f 63/102/39 1/103/39 3/104/39
f 3/104/39 5/105/39 7/106/39
f 7/106/39 9/107/39 11/108/39
f 11/108/39 13/109/39 7/106/39
f 13/109/39 15/69/39 7/106/39
f 15/69/39 17/110/39 19/111/39
f 19/111/40 21/112/40 15/69/40
f 21/112/39 23/113/39 15/69/39
f 23/113/34 25/114/34 31/70/34
f 25/114/39 27/115/39 31/70/39
f 27/115/34 29/116/34 31/70/34
f 31/70/34 33/117/34 35/118/34
f 35/118/40 37/119/40 39/120/40
f 39/120/39 41/121/39 43/122/39
f 43/122/40 45/123/40 47/71/40
f 47/71/41 49/124/41 51/125/41
f 51/125/40 53/126/40 55/127/40
f 55/127/39 57/128/39 63/102/39
f 57/128/40 59/129/40 63/102/40
f 59/129/42 61/130/42 63/102/42
f 63/102/39 3/104/39 7/106/39
f 31/70/39 35/118/39 47/71/39
f 35/118/39 39/120/39 47/71/39
f 39/120/40 43/122/40 47/71/40
f 47/71/34 51/125/34 63/102/34
f 51/125/39 55/127/39 63/102/39
f 63/102/34 7/106/34 15/69/34
f 15/69/39 23/113/39 31/70/39
f 63/102/39 15/69/39 47/71/39
