# Blender v2.90.1 OBJ File: 'spider.blend'
# www.blender.org
mtllib mesh_lowerleg_r3.mtl
o Cylinder.005
v -1.260885 1.988208 -0.272775
v -2.971694 0.585187 -0.673819
v -1.273434 2.002425 -0.268980
v -2.984243 0.599404 -0.670024
v -1.285873 2.015299 -0.260951
v -2.996683 0.612277 -0.661995
v -1.297726 2.026334 -0.248996
v -3.008536 0.623313 -0.650040
v -1.308537 2.035108 -0.233575
v -3.019346 0.632087 -0.634619
v -1.317889 2.041283 -0.215280
v -3.028698 0.638262 -0.616324
v -1.325424 2.044621 -0.194814
v -3.036234 0.641600 -0.595858
v -1.330853 2.044995 -0.172965
v -3.041662 0.641974 -0.574008
v -1.333966 2.042389 -0.150571
v -3.044775 0.639368 -0.551614
v -1.334643 2.036905 -0.128493
v -3.045453 0.633884 -0.529536
v -1.332860 2.028753 -0.107579
v -3.043669 0.625731 -0.508623
v -1.328684 2.018245 -0.088634
v -3.039494 0.615224 -0.489678
v -1.322276 2.005787 -0.072385
v -3.033085 0.602766 -0.473429
v -1.313882 1.991856 -0.059457
v -3.024691 0.588835 -0.460501
v -1.303825 1.976988 -0.050347
v -3.014634 0.573967 -0.451390
v -1.292491 1.961755 -0.045404
v -3.003300 0.558734 -0.446447
v -1.280315 1.946742 -0.044819
v -2.991125 0.543720 -0.445862
v -1.267767 1.932525 -0.048614
v -2.978576 0.529504 -0.449657
v -1.255327 1.919651 -0.056643
v -2.966136 0.516630 -0.457686
v -1.243474 1.908615 -0.068598
v -2.954284 0.505594 -0.469641
v -1.232664 1.899842 -0.084019
v -2.943473 0.496820 -0.485063
v -1.223311 1.893667 -0.102314
v -2.934121 0.490646 -0.503358
v -1.215776 1.890328 -0.122780
v -2.926585 0.487307 -0.523823
v -1.210348 1.889955 -0.144629
v -2.921157 0.486934 -0.545673
v -1.207235 1.892560 -0.167023
v -2.918044 0.489539 -0.568067
v -1.206557 1.898045 -0.189101
v -2.917367 0.495023 -0.590145
v -1.208341 1.906197 -0.210015
v -2.919150 0.503176 -0.611058
v -1.212516 1.916705 -0.228960
v -2.923326 0.513683 -0.630004
v -1.218925 1.929163 -0.245209
v -2.929734 0.526142 -0.646252
v -1.227319 1.943094 -0.258137
v -2.938128 0.540073 -0.659180
v -1.237376 1.957962 -0.267247
v -2.948185 0.554940 -0.668291
v -1.248710 1.973195 -0.272190
v -2.959519 0.570174 -0.673234
vt 1.000000 1.000000
vt 0.968750 0.500000
vt 1.000000 0.500000
vt 0.968750 1.000000
vt 0.937500 0.500000
vt 0.937500 1.000000
vt 0.906250 0.500000
vt 0.906250 1.000000
vt 0.875000 0.500000
vt 0.875000 1.000000
vt 0.843750 0.500000
vt 0.843750 1.000000
vt 0.812500 0.500000
vt 0.812500 1.000000
vt 0.781250 0.500000
vt 0.781250 1.000000
vt 0.750000 0.500000
vt 0.750000 1.000000
vt 0.718750 0.500000
vt 0.718750 1.000000
vt 0.687500 0.500000
vt 0.687500 1.000000
vt 0.656250 0.500000
vt 0.656250 1.000000
vt 0.625000 0.500000
vt 0.625000 1.000000
vt 0.593750 0.500000
vt 0.593750 1.000000
vt 0.562500 0.500000
vt 0.562500 1.000000
vt 0.531250 0.500000
vt 0.531250 1.000000
vt 0.500000 0.500000
vt 0.500000 1.000000
vt 0.468750 0.500000
vt 0.468750 1.000000
vt 0.437500 0.500000
vt 0.437500 1.000000
vt 0.406250 0.500000
vt 0.406250 1.000000
vt 0.375000 0.500000
vt 0.375000 1.000000
vt 0.343750 0.500000
vt 0.343750 1.000000
vt 0.312500 0.500000
vt 0.312500 1.000000
vt 0.281250 0.500000
vt 0.281250 1.000000
vt 0.250000 0.500000
vt 0.250000 1.000000
vt 0.218750 0.500000
vt 0.218750 1.000000
vt 0.187500 0.500000
vt 0.187500 1.000000
vt 0.156250 0.500000
vt 0.156250 1.000000
vt 0.125000 0.500000
vt 0.125000 1.000000
vt 0.093750 0.500000
vt 0.093750 1.000000
vt 0.062500 0.500000
vt 0.028269 0.341844
vt 0.158156 0.028269
vt 0.471731 0.158156
vt 0.062500 1.000000
vt 0.031250 0.500000
vt 0.031250 1.000000
vt 0.000000 0.500000
vt 0.985388 0.296822
vt 0.796822 0.014612
vt 0.514611 0.203179
vt 0.341844 0.471731
vt 0.296822 0.485388
vt 0.250000 0.490000
vt 0.203179 0.485389
vt 0.158156 0.471731
vt 0.116663 0.449553
vt 0.080295 0.419706
vt 0.050447 0.383337
vt 0.014612 0.296822
vt 0.010000 0.250000
vt 0.014611 0.203179
vt 0.028269 0.158156
vt 0.050447 0.116663
vt 0.080294 0.080294
vt 0.116663 0.050447
vt 0.203178 0.014612
vt 0.250000 0.010000
vt 0.296822 0.014612
vt 0.341844 0.028269
vt 0.383337 0.050447
vt 0.419706 0.080294
vt 0.449553 0.116663
vt 0.485388 0.203178
vt 0.490000 0.250000
vt 0.485388 0.296822
vt 0.471731 0.341844
vt 0.449553 0.383337
vt 0.419706 0.419706
vt 0.383337 0.449553
vt 0.000000 1.000000
vt 0.703179 0.485389
vt 0.750000 0.490000
vt 0.796822 0.485388
vt 0.841844 0.471731
vt 0.883337 0.449553
vt 0.919706 0.419706
vt 0.949553 0.383337
vt 0.971731 0.341844
vt 0.990000 0.250000
vt 0.985388 0.203178
vt 0.971731 0.158156
vt 0.949553 0.116663
vt 0.919706 0.080294
vt 0.883337 0.050447
vt 0.841844 0.028269
vt 0.750000 0.010000
vt 0.703178 0.014612
vt 0.658156 0.028269
vt 0.616663 0.050447
vt 0.580294 0.080294
vt 0.550447 0.116663
vt 0.528269 0.158156
vt 0.510000 0.250000
vt 0.514612 0.296822
vt 0.528269 0.341844
vt 0.550447 0.383337
vt 0.580295 0.419706
vt 0.616663 0.449553
vt 0.658156 0.471731
vn 0.0087 0.2650 -0.9642
vn -0.1383 0.4244 -0.8948
vn -0.2728 0.5569 -0.7845
vn -0.3878 0.6575 -0.6460
vn -0.4807 0.7265 -0.4910
vn -0.5518 0.7667 -0.3282
vn -0.6025 0.7813 -0.1631
vn -0.6344 0.7730 0.0018
vn -0.6483 0.7434 0.1647
vn -0.6441 0.6925 0.3249
vn -0.6207 0.6196 0.4805
vn -0.5761 0.5230 0.6282
vn -0.5078 0.4014 0.7622
vn -0.4141 0.2552 0.8737
vn -0.2957 0.0886 0.9512
vn -0.1573 -0.0893 0.9835
vn -0.0087 -0.2650 0.9642
vn 0.1383 -0.4244 0.8948
vn 0.2728 -0.5569 0.7845
vn 0.3878 -0.6575 0.6460
vn 0.4807 -0.7265 0.4910
vn 0.5518 -0.7667 0.3282
vn 0.6025 -0.7813 0.1630
vn 0.6344 -0.7730 -0.0018
vn 0.6483 -0.7434 -0.1648
vn 0.6441 -0.6925 -0.3249
vn 0.6207 -0.6196 -0.4805
vn 0.5761 -0.5230 -0.6282
vn 0.5078 -0.4014 -0.7622
vn 0.4141 -0.2552 -0.8737
vn -0.7608 -0.6240 -0.1784
vn 0.2957 -0.0886 -0.9512
vn 0.1573 0.0893 -0.9835
vn 0.7608 0.6240 0.1784
vn -0.6025 0.7813 -0.1630
vn -0.6483 0.7434 0.1648
vn -0.6207 0.6196 0.4804
vn 0.3878 -0.6575 0.6459
vn -0.7608 -0.6239 -0.1784
vn -0.7608 -0.6240 -0.1783
vn -0.7609 -0.6239 -0.1783
vn -0.7609 -0.6239 -0.1784
vn -0.7606 -0.6242 -0.1783
vn -0.7607 -0.6241 -0.1783
vn -0.7610 -0.6238 -0.1783
vn 0.7608 0.6239 0.1784
vn 0.7608 0.6240 0.1783
vn 0.7609 0.6239 0.1784
vn 0.7608 0.6239 0.1783
vn 0.7609 0.6239 0.1783
usemtl None
s off
f 2/1/1 3/2/1 1/3/1
f 4/4/2 5/5/2 3/2/2
f 6/6/3 7/7/3 5/5/3
f 8/8/4 9/9/4 7/7/4
f 10/10/5 11/11/5 9/9/5
f 12/12/6 13/13/6 11/11/6
f 14/14/7 15/15/7 13/13/7
f 16/16/8 17/17/8 15/15/8
f 18/18/9 19/19/9 17/17/9
f 20/20/10 21/21/10 19/19/10
f 22/22/11 23/23/11 21/21/11
f 24/24/12 25/25/12 23/23/12
f 26/26/13 27/27/13 25/25/13
f 28/28/14 29/29/14 27/27/14
f 30/30/15 31/31/15 29/29/15
f 32/32/16 33/33/16 31/31/16
f 34/34/17 35/35/17 33/33/17
f 36/36/18 37/37/18 35/35/18
f 38/38/19 39/39/19 37/37/19
f 40/40/20 41/41/20 39/39/20
f 42/42/21 43/43/21 41/41/21
f 44/44/22 45/45/22 43/43/22
f 46/46/23 47/47/23 45/45/23
f 48/48/24 49/49/24 47/47/24
f 50/50/25 51/51/25 49/49/25
f 52/52/26 53/53/26 51/51/26
f 54/54/27 55/55/27 53/53/27
f 56/56/28 57/57/28 55/55/28
f 58/58/29 59/59/29 57/57/29
f 60/60/30 61/61/30 59/59/30
f 54/62/31 38/63/31 22/64/31
f 62/65/32 63/66/32 61/61/32
f 64/67/33 1/68/33 63/66/33
f 15/69/34 31/70/34 47/71/34
f 2/1/1 4/4/1 3/2/1
f 4/4/2 6/6/2 5/5/2
f 6/6/3 8/8/3 7/7/3
f 8/8/4 10/10/4 9/9/4
f 10/10/5 12/12/5 11/11/5
f 12/12/6 14/14/6 13/13/6
f 14/14/35 16/16/35 15/15/35
f 16/16/8 18/18/8 17/17/8
f 18/18/36 20/20/36 19/19/36
f 20/20/10 22/22/10 21/21/10
f 22/22/37 24/24/37 23/23/37
f 24/24/12 26/26/12 25/25/12
f 26/26/13 28/28/13 27/27/13
f 28/28/14 30/30/14 29/29/14
f 30/30/15 32/32/15 31/31/15
f 32/32/16 34/34/16 33/33/16
f 34/34/17 36/36/17 35/35/17
f 36/36/18 38/38/18 37/37/18
f 38/38/19 40/40/19 39/39/19
f 40/40/38 42/42/38 41/41/38
f 42/42/21 44/44/21 43/43/21
f 44/44/22 46/46/22 45/45/22
f 46/46/23 48/48/23 47/47/23
f 48/48/24 50/50/24 49/49/24
f 50/50/25 52/52/25 51/51/25
f 52/52/26 54/54/26 53/53/26
f 54/54/27 56/56/27 55/55/27
f 56/56/28 58/58/28 57/57/28
f 58/58/29 60/60/29 59/59/29
f 60/60/30 62/65/30 61/61/30
f 6/72/39 4/73/39 2/74/39
f 2/74/40 64/75/40 6/72/40
f 64/75/40 62/76/40 6/72/40
f 62/76/41 60/77/41 58/78/41
f 58/78/42 56/79/42 54/62/42
f 54/62/43 52/80/43 50/81/43
f 50/81/42 48/82/42 54/62/42
f 48/82/31 46/83/31 54/62/31
f 46/83/31 44/84/31 38/63/31
f 44/84/39 42/85/39 38/63/39
f 42/85/41 40/86/41 38/63/41
f 38/63/41 36/87/41 34/88/41
f 34/88/42 32/89/42 30/90/42
f 30/90/40 28/91/40 26/92/40
f 26/92/44 24/93/44 22/64/44
f 22/64/45 20/94/45 18/95/45
f 18/95/39 16/96/39 22/64/39
f 16/96/31 14/97/31 22/64/31
f 14/97/42 12/98/42 10/99/42
f 10/99/40 8/100/40 6/72/40
f 62/76/31 58/78/31 6/72/31
f 58/78/31 54/62/31 6/72/31
f 38/63/31 34/88/31 22/64/31
f 34/88/40 30/90/40 22/64/40
f 30/90/42 26/92/42 22/64/42
f 14/97/39 10/99/39 22/64/39
f 10/99/40 6/72/40 22/64/40
f 54/62/31 46/83/31 38/63/31
f 6/72/31 54/62/31 22/64/31
f 62/65/32 64/67/32 63/66/32
f 64/67/33 2/101/33 1/68/33
f 63/102/46 1/103/46 3/104/46
f 3/104/46 5/105/46 7/106/46
f 7/106/47 9/107/47 11/108/47
f 11/108/46 13/109/46 7/106/46
f 13/109/47 15/69/47 7/106/47
f 15/69/47 17/110/47 19/111/47
f 19/111/48 21/112/48 15/69/48
f 21/112/49 23/113/49 15/69/49
f 23/113/49 25/114/49 31/70/49
f 25/114/34 27/115/34 31/70/34
f 27/115/34 29/116/34 31/70/34
f 31/70/47 33/117/47 35/118/47
f 35/118/34 37/119/34 39/120/34
f 39/120/47 41/121/47 43/122/47
f 43/122/46 45/123/46 47/71/46
f 47/71/48 49/124/48 51/125/48
f 51/125/50 53/126/50 55/127/50
f 55/127/34 57/128/34 63/102/34
f 57/128/47 59/129/47 63/102/47
f 59/129/34 61/130/34 63/102/34
f 63/102/47 3/104/47 7/106/47
f 31/70/47 35/118/47 47/71/47
f 35/118/34 39/120/34 47/71/34
f 39/120/46 43/122/46 47/71/46
f 47/71/34 51/125/34 63/102/34
f 51/125/34 55/127/34 63/102/34
f 63/102/34 7/106/34 15/69/34
f 15/69/34 23/113/34 31/70/34
f 63/102/34 15/69/34 47/71/34
