# Blender v2.90.1 OBJ File: 'spider.blend'
# www.blender.org
mtllib mesh_upperleg_l3.mtl
o Cylinder.012_Cylinder.022
v 1.417263 1.904302 -0.089453
v 0.774120 1.358425 0.050287
v 1.430125 1.889577 -0.087776
v 0.786983 1.343700 0.051964
v 1.442505 1.874357 -0.090256
v 0.799363 1.328479 0.049484
v 1.453928 1.859224 -0.096796
v 0.810786 1.313347 0.042945
v 1.463954 1.844763 -0.107145
v 0.820812 1.298885 0.032595
v 1.472198 1.831527 -0.120906
v 0.829056 1.285650 0.018834
v 1.478343 1.820026 -0.137550
v 0.835201 1.274149 0.002190
v 1.482153 1.810702 -0.156438
v 0.839011 1.264824 -0.016698
v 1.483482 1.803913 -0.176843
v 0.840340 1.258035 -0.037103
v 1.482279 1.799919 -0.197981
v 0.839136 1.254042 -0.058241
v 1.478589 1.798876 -0.219040
v 0.835447 1.252998 -0.079300
v 1.472555 1.800821 -0.239211
v 0.829413 1.254944 -0.099471
v 1.464408 1.805682 -0.257719
v 0.821266 1.259804 -0.117979
v 1.454462 1.813270 -0.273852
v 0.811320 1.267393 -0.134112
v 1.443099 1.823295 -0.286990
v 0.799957 1.277417 -0.147250
v 1.430755 1.835370 -0.296628
v 0.787613 1.289493 -0.156888
v 1.417905 1.849033 -0.302397
v 0.774763 1.303156 -0.162657
v 1.405043 1.863758 -0.304074
v 0.761901 1.317881 -0.164334
v 1.392663 1.878979 -0.301595
v 0.749520 1.333102 -0.161855
v 1.381240 1.894111 -0.295055
v 0.738098 1.348234 -0.155315
v 1.371214 1.908573 -0.284705
v 0.728072 1.362695 -0.144965
v 1.362970 1.921808 -0.270944
v 0.719828 1.375931 -0.131204
v 1.356825 1.933309 -0.254300
v 0.713683 1.387432 -0.114560
v 1.353015 1.942634 -0.235412
v 0.709872 1.396756 -0.095672
v 1.351686 1.949423 -0.215007
v 0.708544 1.403545 -0.075267
v 1.352889 1.953416 -0.193869
v 0.709747 1.407539 -0.054129
v 1.356579 1.954460 -0.172810
v 0.713437 1.408582 -0.033070
v 1.362613 1.952514 -0.152639
v 0.719471 1.406637 -0.012899
v 1.370760 1.947654 -0.134131
v 0.727618 1.401776 0.005609
v 1.380706 1.940065 -0.117999
v 0.737564 1.394188 0.021742
v 1.392069 1.930041 -0.104860
v 0.748927 1.384163 0.034880
v 1.404413 1.917965 -0.095222
v 0.761271 1.372087 0.044518
vt 1.000000 1.000000
vt 0.968750 0.500000
vt 1.000000 0.500000
vt 0.968750 1.000000
vt 0.937500 0.500000
vt 0.937500 1.000000
vt 0.906250 0.500000
vt 0.906250 1.000000
vt 0.875000 0.500000
vt 0.875000 1.000000
vt 0.843750 0.500000
vt 0.843750 1.000000
vt 0.812500 0.500000
vt 0.812500 1.000000
vt 0.781250 0.500000
vt 0.781250 1.000000
vt 0.750000 0.500000
vt 0.750000 1.000000
vt 0.718750 0.500000
vt 0.718750 1.000000
vt 0.687500 0.500000
vt 0.687500 1.000000
vt 0.656250 0.500000
vt 0.656250 1.000000
vt 0.625000 0.500000
vt 0.625000 1.000000
vt 0.593750 0.500000
vt 0.593750 1.000000
vt 0.562500 0.500000
vt 0.562500 1.000000
vt 0.531250 0.500000
vt 0.531250 1.000000
vt 0.500000 0.500000
vt 0.500000 1.000000
vt 0.468750 0.500000
vt 0.468750 1.000000
vt 0.437500 0.500000
vt 0.437500 1.000000
vt 0.406250 0.500000
vt 0.406250 1.000000
vt 0.375000 0.500000
vt 0.375000 1.000000
vt 0.343750 0.500000
vt 0.343750 1.000000
vt 0.312500 0.500000
vt 0.312500 1.000000
vt 0.281250 0.500000
vt 0.281250 1.000000
vt 0.250000 0.500000
vt 0.250000 1.000000
vt 0.218750 0.500000
vt 0.218750 1.000000
vt 0.187500 0.500000
vt 0.187500 1.000000
vt 0.156250 0.500000
vt 0.156250 1.000000
vt 0.125000 0.500000
vt 0.125000 1.000000
vt 0.093750 0.500000
vt 0.093750 1.000000
vt 0.062500 0.500000
vt 0.028269 0.341844
vt 0.158156 0.028269
vt 0.471731 0.158156
vt 0.062500 1.000000
vt 0.031250 0.500000
vt 0.031250 1.000000
vt 0.000000 0.500000
vt 0.985388 0.296822
vt 0.796822 0.014612
vt 0.514611 0.203179
vt 0.341844 0.471731
vt 0.296822 0.485388
vt 0.250000 0.490000
vt 0.203179 0.485389
vt 0.158156 0.471731
vt 0.116663 0.449553
vt 0.080295 0.419706
vt 0.050447 0.383337
vt 0.014612 0.296822
vt 0.010000 0.250000
vt 0.014611 0.203179
vt 0.028269 0.158156
vt 0.050447 0.116663
vt 0.080294 0.080294
vt 0.116663 0.050447
vt 0.203178 0.014612
vt 0.250000 0.010000
vt 0.296822 0.014612
vt 0.341844 0.028269
vt 0.383337 0.050447
vt 0.419706 0.080294
vt 0.449553 0.116663
vt 0.485388 0.203178
vt 0.490000 0.250000
vt 0.485388 0.296822
vt 0.471731 0.341844
vt 0.449553 0.383337
vt 0.419706 0.419706
vt 0.383337 0.449553
vt 0.000000 1.000000
vt 0.703179 0.485389
vt 0.750000 0.490000
vt 0.796822 0.485388
vt 0.841844 0.471731
vt 0.883337 0.449553
vt 0.919706 0.419706
vt 0.949553 0.383337
vt 0.971731 0.341844
vt 0.990000 0.250000
vt 0.985388 0.203178
vt 0.971731 0.158156
vt 0.949553 0.116663
vt 0.919706 0.080294
vt 0.883337 0.050447
vt 0.841844 0.028269
vt 0.750000 0.010000
vt 0.703178 0.014612
vt 0.658156 0.028269
vt 0.616663 0.050447
vt 0.580294 0.080294
vt 0.550447 0.116663
vt 0.528269 0.158156
vt 0.510000 0.250000
vt 0.514612 0.296822
vt 0.528269 0.341844
vt 0.550447 0.383337
vt 0.580295 0.419706
vt 0.616663 0.449553
vt 0.658156 0.471731
vn 0.0681 0.1714 0.9828
vn 0.2058 0.0080 0.9786
vn 0.3315 -0.1522 0.9311
vn 0.4394 -0.3010 0.8463
vn 0.5264 -0.4329 0.7317
vn 0.5914 -0.5446 0.5947
vn 0.6345 -0.6346 0.4413
vn 0.6561 -0.7022 0.2764
vn 0.6566 -0.7471 0.1037
vn 0.6360 -0.7682 -0.0734
vn 0.5940 -0.7642 -0.2514
vn 0.5299 -0.7334 -0.4259
vn 0.4437 -0.6740 -0.5906
vn 0.3365 -0.5853 -0.7377
vn 0.2114 -0.4686 -0.8578
vn 0.0739 -0.3281 -0.9417
vn -0.0681 -0.1714 -0.9828
vn -0.2058 -0.0080 -0.9786
vn -0.3315 0.1522 -0.9311
vn -0.4394 0.3010 -0.8463
vn -0.5264 0.4329 -0.7317
vn -0.5914 0.5446 -0.5947
vn -0.6345 0.6346 -0.4413
vn -0.6561 0.7022 -0.2764
vn -0.6566 0.7471 -0.1037
vn -0.6360 0.7682 0.0734
vn -0.5940 0.7642 0.2514
vn -0.5299 0.7334 0.4259
vn -0.4437 0.6740 0.5906
vn -0.3365 0.5853 0.7377
vn -0.7522 -0.6384 0.1634
vn -0.2114 0.4686 0.8578
vn -0.0739 0.3281 0.9417
vn 0.7522 0.6384 -0.1634
vn 0.6566 -0.7471 0.1038
vn 0.5299 -0.7334 -0.4258
vn -0.4394 0.3011 -0.8463
vn -0.7522 -0.6384 0.1633
vn -0.7521 -0.6384 0.1634
vn -0.7521 -0.6384 0.1635
vn -0.7522 -0.6384 0.1635
vn 0.7522 0.6384 -0.1635
vn 0.7521 0.6384 -0.1634
vn 0.7521 0.6385 -0.1633
vn 0.7521 0.6384 -0.1635
vn 0.7522 0.6383 -0.1635
usemtl None
s off
f 2/1/1 3/2/1 1/3/1
f 4/4/2 5/5/2 3/2/2
f 6/6/3 7/7/3 5/5/3
f 8/8/4 9/9/4 7/7/4
f 10/10/5 11/11/5 9/9/5
f 12/12/6 13/13/6 11/11/6
f 14/14/7 15/15/7 13/13/7
f 16/16/8 17/17/8 15/15/8
f 18/18/9 19/19/9 17/17/9
f 20/20/10 21/21/10 19/19/10
f 22/22/11 23/23/11 21/21/11
f 24/24/12 25/25/12 23/23/12
f 26/26/13 27/27/13 25/25/13
f 28/28/14 29/29/14 27/27/14
f 30/30/15 31/31/15 29/29/15
f 32/32/16 33/33/16 31/31/16
f 34/34/17 35/35/17 33/33/17
f 36/36/18 37/37/18 35/35/18
f 38/38/19 39/39/19 37/37/19
f 40/40/20 41/41/20 39/39/20
f 42/42/21 43/43/21 41/41/21
f 44/44/22 45/45/22 43/43/22
f 46/46/23 47/47/23 45/45/23
f 48/48/24 49/49/24 47/47/24
f 50/50/25 51/51/25 49/49/25
f 52/52/26 53/53/26 51/51/26
f 54/54/27 55/55/27 53/53/27
f 56/56/28 57/57/28 55/55/28
f 58/58/29 59/59/29 57/57/29
f 60/60/30 61/61/30 59/59/30
f 54/62/31 38/63/31 22/64/31
f 62/65/32 63/66/32 61/61/32
f 64/67/33 1/68/33 63/66/33
f 15/69/34 31/70/34 47/71/34
f 2/1/1 4/4/1 3/2/1
f 4/4/2 6/6/2 5/5/2
f 6/6/3 8/8/3 7/7/3
f 8/8/4 10/10/4 9/9/4
f 10/10/5 12/12/5 11/11/5
f 12/12/6 14/14/6 13/13/6
f 14/14/7 16/16/7 15/15/7
f 16/16/8 18/18/8 17/17/8
f 18/18/35 20/20/35 19/19/35
f 20/20/10 22/22/10 21/21/10
f 22/22/11 24/24/11 23/23/11
f 24/24/36 26/26/36 25/25/36
f 26/26/13 28/28/13 27/27/13
f 28/28/14 30/30/14 29/29/14
f 30/30/15 32/32/15 31/31/15
f 32/32/16 34/34/16 33/33/16
f 34/34/17 36/36/17 35/35/17
f 36/36/18 38/38/18 37/37/18
f 38/38/19 40/40/19 39/39/19
f 40/40/37 42/42/37 41/41/37
f 42/42/21 44/44/21 43/43/21
f 44/44/22 46/46/22 45/45/22
f 46/46/23 48/48/23 47/47/23
f 48/48/24 50/50/24 49/49/24
f 50/50/25 52/52/25 51/51/25
f 52/52/26 54/54/26 53/53/26
f 54/54/27 56/56/27 55/55/27
f 56/56/28 58/58/28 57/57/28
f 58/58/29 60/60/29 59/59/29
f 60/60/30 62/65/30 61/61/30
f 6/72/38 4/73/38 2/74/38
f 2/74/39 64/75/39 6/72/39
f 64/75/31 62/76/31 6/72/31
f 62/76/39 60/77/39 58/78/39
f 58/78/31 56/79/31 54/62/31
f 54/62/31 52/80/31 50/81/31
f 50/81/39 48/82/39 54/62/39
f 48/82/31 46/83/31 54/62/31
f 46/83/31 44/84/31 38/63/31
f 44/84/31 42/85/31 38/63/31
f 42/85/31 40/86/31 38/63/31
f 38/63/38 36/87/38 34/88/38
f 34/88/40 32/89/40 30/90/40
f 30/90/41 28/91/41 26/92/41
f 26/92/31 24/93/31 22/64/31
f 22/64/39 20/94/39 18/95/39
f 18/95/31 16/96/31 22/64/31
f 16/96/31 14/97/31 22/64/31
f 14/97/31 12/98/31 10/99/31
f 10/99/40 8/100/40 6/72/40
f 62/76/31 58/78/31 6/72/31
f 58/78/31 54/62/31 6/72/31
f 38/63/31 34/88/31 22/64/31
f 34/88/31 30/90/31 22/64/31
f 30/90/39 26/92/39 22/64/39
f 14/97/31 10/99/31 22/64/31
f 10/99/39 6/72/39 22/64/39
f 54/62/31 46/83/31 38/63/31
f 6/72/31 54/62/31 22/64/31
f 62/65/32 64/67/32 63/66/32
f 64/67/33 2/101/33 1/68/33
f 63/102/34 1/103/34 3/104/34
f 3/104/42 5/105/42 7/106/42
f 7/106/43 9/107/43 11/108/43
f 11/108/43 13/109/43 7/106/43
f 13/109/42 15/69/42 7/106/42
f 15/69/43 17/110/43 19/111/43
f 19/111/43 21/112/43 15/69/43
f 21/112/34 23/113/34 15/69/34
f 23/113/34 25/114/34 31/70/34
f 25/114/34 27/115/34 31/70/34
f 27/115/44 29/116/44 31/70/44
f 31/70/45 33/117/45 35/118/45
f 35/118/45 37/119/45 39/120/45
f 39/120/34 41/121/34 43/122/34
f 43/122/43 45/123/43 47/71/43
f 47/71/43 49/124/43 51/125/43
f 51/125/46 53/126/46 55/127/46
f 55/127/43 57/128/43 63/102/43
f 57/128/43 59/129/43 63/102/43
f 59/129/45 61/130/45 63/102/45
f 63/102/34 3/104/34 7/106/34
f 31/70/34 35/118/34 47/71/34
f 35/118/34 39/120/34 47/71/34
f 39/120/34 43/122/34 47/71/34
f 47/71/34 51/125/34 63/102/34
f 51/125/34 55/127/34 63/102/34
f 63/102/34 7/106/34 15/69/34
f 15/69/34 23/113/34 31/70/34
f 63/102/34 15/69/34 47/71/34
