# Blender v2.90.1 OBJ File: 'tree.blend'
# www.blender.org
mtllib toptree.mtl
o Cylinder.016_Cylinder.006
v -1.363911 54.773952 -2.900041
v 0.478228 46.794395 -5.037410
v -1.399525 46.794388 -5.720861
v -1.214291 54.773952 -2.774503
v 1.420172 46.130085 -3.370031
v 1.130360 46.794388 -1.338956
v -1.232338 54.773952 -2.672161
v -0.400396 46.794388 -0.054494
v -1.415878 54.773952 -2.605360
v -2.455849 46.130085 -0.117668
v -3.929420 46.794388 -1.338956
v -1.513531 54.773952 -2.774503
v -4.276417 46.794388 -3.306860
v -1.311954 54.773952 -2.605360
v -1.461563 54.773952 -2.864500
v -3.334476 46.130085 -5.100581
v -5.159079 11.766109 7.003783
v -1.614796 12.430419 -12.709360
v 8.425909 10.394504 -4.284212
v -13.411316 9.856010 -4.662527
v -7.367182 15.501223 -9.432474
v -9.376633 9.191710 -11.813047
v -1.629223 9.856015 -14.548883
v -11.990219 9.856009 3.396898
v -10.357437 16.165524 -4.090981
v -4.687309 15.501216 5.765834
v -5.778290 9.191703 8.594143
v 2.462660 9.856009 8.657323
v 8.731777 9.856009 3.396907
v 1.464754 16.165520 5.829017
v 7.192069 16.165524 -4.090981
v 10.095694 9.191709 -4.725701
v 6.060999 9.856014 -11.749865
v -1.582680 16.165525 -11.453875
v -6.357838 38.680149 -3.617839
v -2.647903 46.655537 -4.183547
v -4.710545 38.015835 -6.633259
v -1.449982 38.680149 -7.736013
v -5.765881 38.680149 -0.260673
v -3.221020 47.319859 -3.028673
v -2.093630 46.655537 -1.040114
v -3.211649 38.015842 1.867391
v 0.254498 38.680149 1.930566
v 2.865904 38.680149 -0.260673
v -0.775850 47.319859 -0.976940
v 0.408714 47.319859 -3.028673
v 3.400684 38.015835 -3.681019
v 1.753393 38.680149 -6.570085
v -1.406151 47.319859 -4.551527
v -1.451984 39.231380 -6.343560
v 3.169132 29.761755 -8.271589
v -1.505438 29.761755 -9.973001
v 2.169849 39.231380 -3.304477
v 5.599243 29.097435 -4.026653
v 4.792599 29.761749 0.935524
v -0.194132 39.231380 0.790065
v 0.981850 29.761749 4.133128
v -2.767021 38.567074 0.726894
v -4.049919 29.097446 4.069945
v -7.803482 29.761749 0.935524
v -5.073814 39.231380 -3.304477
v -8.667305 29.761749 -3.963482
v -3.873150 38.567066 -5.546313
v -6.237204 29.097448 -8.334772
v -10.370857 21.748745 -4.208535
v -5.224894 29.643579 -7.049750
v -7.366426 21.084440 -9.574591
v -1.555264 21.748747 -11.605686
v -9.307568 21.748751 1.821681
v -7.117889 30.307894 -3.608756
v -3.509922 29.643578 2.676307
v -4.674076 21.084438 5.694447
v 1.506351 21.748751 5.757629
v 6.197033 21.748741 1.821681
v 0.447643 30.307894 2.739481
v 4.112797 30.307894 -3.608756
v 7.203130 21.084438 -4.271707
v 4.198694 21.748755 -9.511419
v -1.502552 30.307896 -8.320589
v -1.547615 22.353760 -10.082850
v 5.270863 15.540802 -10.799112
v -1.593876 15.540789 -13.297678
v 5.844679 22.353754 -3.879972
v 8.866327 14.876484 -4.535713
v 7.654960 15.540796 2.721767
v 1.019695 22.353767 4.477134
v 2.058781 15.540795 7.417520
v -4.172127 21.689449 4.413963
v -5.303703 14.876482 7.354349
v -10.842705 15.540796 2.721767
v -8.939915 22.353754 -3.879972
v -12.111252 15.540788 -4.472542
v -6.429787 21.689455 -8.389872
v -8.515797 14.876488 -10.862295
v -3.002119 47.319859 -1.787237
v 0.189814 47.319859 -1.787237
v -0.221575 47.319859 -4.120376
v 0.912001 39.231380 -5.483133
v 1.732998 39.231380 -0.826998
v -4.636974 39.231380 -0.826998
v -6.440594 30.307894 0.232363
v 3.435501 30.307894 0.232372
v 2.162611 30.307896 -6.986578
v 3.277357 22.353769 -8.326698
v 4.953064 22.353767 1.176657
v -8.048300 22.353767 1.176657
v -9.299072 16.165520 1.911299
v 6.133705 16.165520 1.911299
v 4.144627 16.165525 -9.369305
v 4.938810 12.430419 -10.324039
v 7.214857 10.394503 2.584033
v 1.872305 12.430413 7.066967
v -10.444435 10.394503 2.584033
v -11.655487 10.394504 -4.284212
v -8.225590 9.730194 -10.387215
v -1.266258 54.773952 -2.864500
v -1.495487 54.773952 -2.672161
v 1.782932 21.570087 4.275218
v 7.988802 11.660350 2.972065
v 9.906403 9.646339 -4.684324
v 5.242697 15.540795 4.745896
v 8.524775 10.704277 2.390214
v 9.075134 9.688775 1.352092
v 9.227361 9.334678 -6.237418
v 2.350283 21.748749 5.049488
v 2.438839 22.885681 4.456270
vn 0.3247 0.3139 -0.8922
vn 0.8773 0.2937 -0.3795
vn 0.8313 0.3076 -0.4629
vn 0.8777 0.2936 -0.3788
vn 0.9413 0.3033 0.1482
vn 0.9564 0.2888 0.0429
vn 0.9565 0.2886 0.0421
vn 0.6125 0.3033 0.7300
vn -0.1214 0.2882 0.9498
vn -0.0172 0.3025 0.9530
vn -0.1223 0.2881 0.9498
vn -0.6008 0.3064 0.7383
vn -0.5290 0.2930 0.7964
vn -0.5284 0.2929 0.7969
vn -0.9354 0.3129 0.1649
vn 0.0000 1.0000 0.0000
vn -0.3328 0.3155 -0.8886
vn -0.3844 0.3085 -0.8701
vn -0.3848 0.3084 -0.8700
vn -0.7907 0.3083 -0.5289
vn -0.8175 0.3151 -0.4821
vn -0.7905 0.3082 -0.5293
vn 0.0542 -0.9971 0.0535
vn 0.0925 -0.9953 -0.0281
vn -0.0984 -0.9902 -0.0989
vn -0.7707 0.4209 -0.4785
vn -0.7707 0.4210 -0.4784
vn -0.7711 0.4246 -0.4745
vn -0.3375 0.4203 -0.8423
vn -0.3377 0.4202 -0.8423
vn -0.3337 0.4239 -0.8420
vn -0.8944 0.4186 0.1577
vn -0.5537 0.4129 0.7232
vn -0.5537 0.4128 0.7232
vn -0.5562 0.4181 0.7182
vn -0.0462 0.4084 0.9116
vn -0.0459 0.4087 0.9115
vn -0.0404 0.4145 0.9091
vn 0.5873 0.4066 0.6999
vn 0.9110 0.3880 0.1396
vn 0.9200 0.3718 0.1241
vn 0.8048 0.3943 -0.4437
vn 0.8172 0.3797 -0.4335
vn 0.8053 0.3937 -0.4433
vn 0.3109 0.4167 -0.8542
vn -0.7918 0.3320 -0.5127
vn -0.7704 0.3192 -0.5518
vn -0.7945 0.3336 -0.5075
vn -0.4104 0.3189 -0.8543
vn -0.3679 0.3317 -0.8687
vn -0.3623 0.3333 -0.8704
vn -0.9308 0.3267 0.1641
vn -0.4829 0.3027 0.8217
vn -0.5452 0.3265 0.7721
vn -0.5524 0.3292 0.7658
vn -0.0909 0.3240 0.9417
vn -0.1716 0.2991 0.9387
vn -0.0799 0.3272 0.9416
vn 0.6096 0.3172 0.7265
vn 0.9376 0.3143 0.1486
vn 0.9488 0.3008 0.0965
vn 0.9499 0.2991 0.0904
vn 0.8531 0.3060 -0.4226
vn 0.8279 0.3182 -0.4619
vn 0.8559 0.3045 -0.4180
vn 0.3234 0.3258 -0.8884
vn 0.3220 0.3372 -0.8846
vn 0.8398 0.3190 -0.4392
vn 0.8242 0.3288 -0.4610
vn 0.8438 0.3164 -0.4335
vn 0.9337 0.3254 0.1492
vn 0.9417 0.3144 0.1196
vn 0.9437 0.3114 0.1117
vn 0.6067 0.3306 0.7230
vn -0.0648 0.3359 0.9397
vn -0.0927 0.3246 0.9413
vn -0.0566 0.3392 0.9390
vn -0.5422 0.3285 0.7734
vn -0.5611 0.3388 0.7553
vn -0.5661 0.3416 0.7503
vn -0.9261 0.3401 0.1633
vn -0.3694 0.3362 -0.8663
vn -0.3543 0.3422 -0.8703
vn -0.3500 0.3439 -0.8713
vn -0.7953 0.3432 -0.4996
vn -0.7889 0.3372 -0.5138
vn -0.7971 0.3449 -0.4956
vn -0.7990 0.3430 -0.4940
vn -0.7973 0.3402 -0.4986
vn -0.8001 0.3449 -0.4907
vn -0.3529 0.3392 -0.8720
vn -0.3481 0.3419 -0.8729
vn -0.3446 0.3439 -0.8735
vn -0.9260 0.3405 0.1633
vn -0.5647 0.3330 0.7551
vn -0.5701 0.3376 0.7490
vn -0.5737 0.3407 0.7448
vn -0.0523 0.3341 0.9411
vn -0.0610 0.3290 0.9423
vn -0.0459 0.3378 0.9401
vn 0.6068 0.3300 0.7231
vn 0.9350 0.3220 0.1486
vn 0.9404 0.3131 0.1326
vn 0.9437 0.3074 0.1223
vn 0.8347 0.3183 -0.4495
vn 0.8254 0.3261 -0.4608
vn 0.8404 0.3134 -0.4422
vn 0.3219 0.3375 -0.8846
vn 0.3129 0.4036 -0.8598
vn 0.8121 0.3807 -0.4422
vn 0.8079 0.3850 -0.4461
vn 0.8221 0.3702 -0.4326
vn 0.9145 0.3793 0.1407
vn 0.9172 0.3747 0.1352
vn 0.9240 0.3628 0.1210
vn 0.5908 0.3940 0.7041
vn -0.0508 0.3964 0.9167
vn -0.0527 0.3947 0.9173
vn -0.0441 0.4020 0.9146
vn -0.5531 0.3987 0.7316
vn -0.5542 0.4004 0.7298
vn -0.5574 0.4053 0.7246
vn -0.9003 0.4053 0.1587
vn -0.3431 0.4062 -0.8469
vn -0.3417 0.4073 -0.8470
vn -0.3374 0.4107 -0.8470
vn -0.7746 0.4079 -0.4833
vn -0.7744 0.4068 -0.4846
vn -0.7754 0.4113 -0.4791
vn 0.2016 -0.8379 0.5072
vn 0.1760 -0.8680 0.4644
vn 0.2404 -0.7851 0.5709
vn 0.4303 -0.8608 0.2717
vn 0.4634 -0.8335 0.3010
vn 0.5205 -0.7777 0.3524
vn 0.4613 -0.8835 -0.0813
vn 0.0292 -0.8258 -0.5632
vn 0.0417 -0.7834 -0.6202
vn 0.0610 -0.7079 -0.7036
vn 0.3564 -0.7886 -0.5012
vn 0.3252 -0.8366 -0.4408
vn 0.3913 -0.7220 -0.5706
vn -0.3116 -0.8746 -0.3714
vn -0.6608 -0.7489 0.0493
vn -0.6220 -0.7827 0.0222
vn -0.4566 -0.8860 -0.0805
vn -0.6272 -0.7610 0.1657
vn -0.6330 -0.7483 0.1983
vn -0.6502 -0.6605 0.3754
vn -0.1473 -0.9025 0.4047
vn -0.1327 -0.9216 0.3647
vn -0.5206 -0.8401 0.1524
vn -0.5678 -0.7822 0.2566
vn -0.6027 -0.7181 0.3480
vn -0.6400 -0.7683 0.0072
vn -0.5245 -0.8507 -0.0341
vn -0.4071 -0.9105 -0.0718
vn -0.2755 -0.9035 -0.3283
vn 0.2150 -0.8622 -0.4587
vn 0.1915 -0.8979 -0.3964
vn 0.2286 -0.8382 -0.4951
vn 0.1081 -0.8959 -0.4309
vn 0.1290 -0.8619 -0.4904
vn 0.1428 -0.8363 -0.5294
vn 0.4082 -0.9100 -0.0720
vn 0.2942 -0.9143 0.2784
vn 0.3282 -0.8897 0.3172
vn 0.3523 -0.8700 0.3449
vn 0.2531 -0.8904 0.3783
vn 0.2190 -0.9161 0.3359
vn 0.2752 -0.8716 0.4057
vn 0.2359 -0.9248 0.2986
vn 0.2034 -0.9431 0.2630
vn 0.2507 -0.9155 0.3146
vn 0.2242 -0.9427 0.2471
vn 0.2527 -0.9249 0.2842
vn 0.2665 -0.9153 0.3020
vn 0.3442 -0.9370 -0.0607
vn 0.1134 -0.9325 -0.3429
vn 0.1346 -0.9093 -0.3938
vn 0.1444 -0.8973 -0.4171
vn 0.1501 -0.9090 -0.3889
vn 0.1330 -0.9330 -0.3344
vn 0.1572 -0.8975 -0.4120
vn -0.2320 -0.9326 -0.2765
vn -0.5854 -0.8107 -0.0099
vn -0.4352 -0.8993 -0.0430
vn -0.3453 -0.9365 -0.0609
vn -0.4292 -0.8934 0.1330
vn -0.5083 -0.8230 0.2536
vn -0.5447 -0.7774 0.3145
vn -0.1135 -0.9433 0.3120
vn -0.1334 -0.9208 0.3665
vn -0.4542 -0.8754 0.1657
vn -0.5591 -0.7732 0.2993
vn -0.5880 -0.7341 0.3395
vn -0.6541 -0.7554 -0.0397
vn -0.4758 -0.8773 -0.0637
vn -0.4060 -0.9111 -0.0716
vn -0.2723 -0.9058 -0.3245
vn 0.1152 -0.8867 -0.4478
vn 0.1043 -0.9102 -0.4008
vn 0.1182 -0.8797 -0.4606
vn 0.1777 -0.9107 -0.3728
vn 0.1988 -0.8882 -0.4141
vn 0.2050 -0.8811 -0.4262
vn 0.4022 -0.9128 -0.0709
vn 0.2177 -0.9245 0.3130
vn 0.2396 -0.9069 0.3465
vn 0.2463 -0.9011 0.3568
vn 0.3019 -0.9058 0.2973
vn 0.2719 -0.9238 0.2694
vn 0.3105 -0.9002 0.3054
vn 0.2633 -0.9292 0.2592
vn 0.2363 -0.9432 0.2335
vn 0.2713 -0.9247 0.2669
vn 0.1887 -0.9436 0.2722
vn 0.2090 -0.9299 0.3027
vn 0.2154 -0.9253 0.3122
vn 0.3467 -0.9360 -0.0611
vn 0.1519 -0.9354 -0.3194
vn 0.1705 -0.9185 -0.3568
vn 0.1762 -0.9129 -0.3681
vn 0.0997 -0.9175 -0.3851
vn 0.0895 -0.9350 -0.3431
vn 0.1026 -0.9121 -0.3970
vn -0.2340 -0.9314 -0.2788
vn -0.5825 -0.8121 -0.0349
vn -0.4135 -0.9088 -0.0552
vn -0.3508 -0.9344 -0.0619
vn -0.3960 -0.9068 0.1450
vn -0.4992 -0.8240 0.2679
vn -0.5287 -0.7920 0.3052
vn -0.1162 -0.9405 0.3194
vn -0.2842 -0.5563 0.7808
vn -0.7662 -0.5763 0.2843
vn -0.5954 -0.7655 0.2438
vn -0.8066 -0.5136 0.2926
vn -0.5600 -0.8277 -0.0357
vn -0.3664 -0.9291 -0.0505
vn -0.3081 -0.9498 -0.0543
vn -0.3055 -0.8973 -0.3186
vn -0.6117 -0.5867 -0.5307
vn -0.6608 -0.4983 -0.5613
vn 0.0546 -0.5201 -0.8523
vn 0.0509 -0.5297 -0.8467
vn 0.0564 -0.5153 -0.8551
vn 0.5675 -0.6025 -0.5612
vn 0.2624 -0.8865 -0.3811
vn 0.6249 -0.5135 -0.5880
vn 0.3033 -0.9514 -0.0535
vn 0.2327 -0.9107 0.3413
vn 0.4326 -0.6062 0.6674
vn 0.4638 -0.5168 0.7196
vn 0.2312 -0.9453 0.2302
vn 0.2039 -0.9571 0.2057
vn 0.2380 -0.9421 0.2363
vn 0.8235 0.3095 -0.4755
vn 0.9378 0.3053 0.1654
vn 0.0000 0.3045 0.9525
vn -0.6115 0.3083 0.7287
vn -0.3244 0.3166 -0.8914
vn -0.8216 0.3161 -0.4744
vn 0.4563 -0.8199 0.3457
vn 0.2623 -0.9634 0.0555
vn 0.1414 -0.9105 -0.3886
vn -0.0884 -0.9942 0.0609
vn 0.0778 -0.8696 0.4876
vn 0.2908 -0.9554 -0.0513
vn -0.7702 0.4165 -0.4830
vn -0.3422 0.4158 -0.8426
vn -0.5507 0.4065 0.7290
vn -0.0527 0.4015 0.9143
vn 0.8993 0.4076 0.1586
vn 0.9100 0.3898 0.1414
vn 0.7892 0.4116 -0.4557
vn -0.7649 0.3160 -0.5613
vn -0.4209 0.3156 -0.8505
vn -0.4677 0.2967 0.8326
vn -0.1923 0.2923 0.9368
vn 0.9336 0.3183 0.1646
vn 0.8200 0.3217 -0.4734
vn 0.8165 0.3334 -0.4714
vn 0.9294 0.3308 0.1639
vn -0.1056 0.3194 0.9417
vn -0.5339 0.3239 0.7810
vn -0.3761 0.3335 -0.8645
vn -0.7859 0.3344 -0.5200
vn -0.7957 0.3376 -0.5029
vn -0.3575 0.3366 -0.8712
vn -0.5598 0.3287 0.7606
vn -0.0695 0.3241 0.9435
vn 0.9295 0.3303 0.1639
vn 0.8165 0.3333 -0.4714
vn 0.3220 0.3375 -0.8846
vn 0.7942 0.3988 -0.4585
vn 0.9047 0.3950 0.1595
vn -0.0608 0.3877 0.9198
vn -0.5490 0.3925 0.7379
vn -0.3483 0.4020 -0.8468
vn -0.7734 0.4026 -0.4897
vn 0.1434 -0.9012 0.4090
vn 0.3808 -0.8960 0.2283
vn 0.0140 -0.8712 -0.4908
vn 0.2947 -0.8755 -0.3830
vn -0.7413 -0.6620 0.1107
vn -0.5903 -0.8071 0.0120
vn -0.4795 -0.8745 0.0723
vn -0.6977 -0.7158 0.0299
vn 0.1814 -0.9113 -0.3697
vn 0.0980 -0.9105 -0.4018
vn 0.2757 -0.9262 0.2573
vn 0.2020 -0.9274 0.3147
vn 0.1927 -0.9485 0.2513
vn 0.2142 -0.9483 0.2342
vn 0.1066 -0.9391 -0.3267
vn 0.1280 -0.9393 -0.3185
vn -0.6312 -0.7756 0.0012
vn -0.3929 -0.9160 0.0816
vn -0.4231 -0.8968 0.1289
vn -0.6876 -0.7253 -0.0345
vn 0.1023 -0.9143 -0.3919
vn 0.1734 -0.9150 -0.3644
vn 0.2129 -0.9280 0.3056
vn 0.2657 -0.9273 0.2635
vn 0.2306 -0.9459 0.2281
vn 0.1842 -0.9463 0.2655
vn 0.1481 -0.9386 -0.3117
vn 0.0875 -0.9381 -0.3350
vn -0.6148 -0.7881 -0.0305
vn -0.3680 -0.9229 0.1134
vn -0.5291 -0.8177 0.2266
vn -0.5899 -0.8068 -0.0331
vn -0.2053 -0.9476 -0.2447
vn 0.0495 -0.5335 -0.8443
vn 0.1616 -0.9360 -0.3128
vn 0.1636 -0.9593 0.2302
vn 0.1991 -0.9590 0.2015
vn 0.9113 0.3876 0.1392
usemtl Leaves
s 1
f 1//1 2//1 3//1
f 2//2 4//3 5//4
f 4//5 6//6 5//7
f 7//8 8//8 6//8
f 8//9 9//10 10//11
f 9//12 11//13 10//14
f 11//15 12//15 13//15
f 14//16 7//16 1//16
f 15//17 3//18 16//19
f 13//20 15//21 16//22
f 17//23 18//24 19//25
f 20//26 21//27 22//28
f 21//29 23//30 22//31
f 24//32 25//32 20//32
f 26//33 24//34 27//35
f 28//36 26//37 27//38
f 29//39 30//39 28//39
f 31//40 123//41 120//41
f 31//42 124//43 33//44
f 34//45 33//45 23//45
f 35//46 36//47 37//48
f 36//49 38//50 37//51
f 39//52 40//52 35//52
f 41//53 39//54 42//55
f 43//56 41//57 42//58
f 44//59 45//59 43//59
f 46//60 44//61 47//62
f 48//63 46//64 47//65
f 49//66 48//66 38//66
f 50//67 51//67 52//67
f 51//68 53//69 54//70
f 53//71 55//72 54//73
f 55//74 56//74 57//74
f 57//75 58//76 59//77
f 58//78 60//79 59//80
f 60//81 61//81 62//81
f 63//82 52//83 64//84
f 62//85 63//86 64//87
f 65//88 66//89 67//90
f 66//91 68//92 67//93
f 69//94 70//94 65//94
f 71//95 69//96 72//97
f 73//98 71//99 72//100
f 74//101 126//101 125//101
f 76//102 74//103 77//104
f 78//105 76//106 77//107
f 79//108 78//108 68//108
f 80//109 81//109 82//109
f 81//110 83//111 84//112
f 83//113 85//114 84//115
f 85//116 118//116 121//116
f 87//117 88//118 89//119
f 88//120 90//121 89//122
f 90//123 91//123 92//123
f 93//124 82//125 94//126
f 92//127 93//128 94//129
f 13//130 36//131 40//132
f 36//133 3//134 49//135
f 11//136 40//136 95//136
f 41//137 11//138 95//139
f 8//140 41//141 45//142
f 96//143 8//143 45//143
f 46//144 6//145 96//146
f 97//147 5//148 46//149
f 49//150 2//150 97//150
f 50//151 48//151 98//151
f 98//152 47//153 53//154
f 53//155 44//156 99//157
f 99//158 43//158 56//158
f 43//159 58//160 56//161
f 58//162 39//163 100//164
f 39//165 61//165 100//165
f 63//166 38//167 50//168
f 35//169 63//170 61//171
f 62//172 66//173 70//174
f 66//175 52//176 79//177
f 60//178 70//178 101//178
f 71//179 60//180 101//181
f 57//182 71//183 75//184
f 102//185 57//185 75//185
f 76//186 55//187 102//188
f 103//189 54//190 76//191
f 79//192 51//192 103//192
f 80//193 78//193 104//193
f 104//194 77//195 83//196
f 83//197 74//198 105//199
f 105//200 73//200 86//200
f 73//201 88//202 86//203
f 88//204 69//205 106//206
f 69//207 91//207 106//207
f 93//208 68//209 80//210
f 65//211 93//212 91//213
f 92//214 21//215 25//216
f 21//217 82//218 34//219
f 90//220 25//220 107//220
f 26//221 90//222 107//223
f 87//224 26//225 30//226
f 108//227 87//227 30//227
f 31//228 85//229 108//230
f 109//231 84//232 31//233
f 34//234 81//234 109//234
f 18//235 33//235 110//235
f 33//236 19//237 110//238
f 19//239 29//240 111//241
f 111//242 28//243 112//244
f 28//245 17//246 112//247
f 27//248 113//249 17//250
f 24//251 114//251 113//251
f 115//252 23//253 18//254
f 20//255 115//256 114//257
f 1//1 116//1 2//1
f 2//2 116//258 4//3
f 4//5 7//259 6//6
f 7//8 14//8 8//8
f 8//9 14//260 9//10
f 9//12 117//261 11//13
f 11//15 117//15 12//15
f 4//16 116//16 7//16
f 116//16 1//16 7//16
f 1//16 15//16 9//16
f 15//16 12//16 9//16
f 12//16 117//16 9//16
f 9//16 14//16 1//16
f 15//17 1//262 3//18
f 13//20 12//263 15//21
f 115//264 18//24 114//265
f 18//24 110//266 19//25
f 114//265 18//24 17//23
f 19//25 111//267 17//23
f 111//267 112//268 17//23
f 17//23 113//269 114//265
f 20//26 25//270 21//27
f 21//29 34//271 23//30
f 24//32 107//32 25//32
f 26//33 107//272 24//34
f 28//36 30//273 26//37
f 119//39 30//39 29//39
f 31//40 119//274 122//275
f 33//44 109//276 31//42
f 34//45 109//45 33//45
f 35//46 40//277 36//47
f 36//49 49//278 38//50
f 39//52 95//52 40//52
f 41//53 95//279 39//54
f 43//56 45//280 41//57
f 44//59 96//59 45//59
f 46//60 96//281 44//61
f 48//63 97//282 46//64
f 49//66 97//66 48//66
f 50//67 98//67 51//67
f 51//68 98//283 53//69
f 53//71 99//284 55//72
f 55//74 99//74 56//74
f 57//75 56//285 58//76
f 58//78 100//286 60//79
f 60//81 100//81 61//81
f 63//82 50//287 52//83
f 62//85 61//288 63//86
f 65//88 70//289 66//89
f 66//91 79//290 68//92
f 69//94 101//94 70//94
f 71//95 101//291 69//96
f 73//98 75//292 71//99
f 74//101 102//101 75//101
f 76//102 102//293 74//103
f 78//105 103//294 76//106
f 79//108 103//295 78//108
f 80//109 104//109 81//109
f 81//110 104//296 83//111
f 83//113 105//297 85//114
f 105//116 118//116 85//116
f 87//117 86//298 88//118
f 88//120 106//299 90//121
f 90//123 106//123 91//123
f 93//124 80//300 82//125
f 92//127 91//301 93//128
f 13//130 16//302 36//131
f 36//133 16//303 3//134
f 11//136 13//136 40//136
f 41//137 10//304 11//138
f 8//140 10//305 41//141
f 96//143 6//143 8//143
f 46//144 5//306 6//145
f 97//147 2//307 5//148
f 49//150 3//150 2//150
f 50//151 38//151 48//151
f 98//152 48//308 47//153
f 53//155 47//309 44//156
f 99//158 44//158 43//158
f 43//159 42//310 58//160
f 58//162 42//311 39//163
f 39//165 35//165 61//165
f 63//166 37//312 38//167
f 35//169 37//313 63//170
f 62//172 64//314 66//173
f 66//175 64//315 52//176
f 60//178 62//178 70//178
f 71//179 59//316 60//180
f 57//182 59//317 71//183
f 102//185 55//185 57//185
f 76//186 54//318 55//187
f 103//189 51//319 54//190
f 79//192 52//192 51//192
f 80//193 68//193 78//193
f 104//194 78//320 77//195
f 83//197 77//321 74//198
f 105//200 125//200 73//200
f 73//201 72//322 88//202
f 88//204 72//323 69//205
f 69//207 65//207 91//207
f 93//208 67//324 68//209
f 65//211 67//325 93//212
f 92//214 94//326 21//215
f 21//217 94//327 82//218
f 90//220 92//220 25//220
f 26//221 89//328 90//222
f 87//224 89//329 26//225
f 108//227 121//227 87//227
f 31//228 84//330 85//229
f 109//231 81//331 84//232
f 34//234 82//234 81//234
f 18//235 23//235 33//235
f 124//332 19//237 33//236
f 19//239 123//333 29//240
f 111//242 29//334 28//243
f 28//245 27//335 17//246
f 27//248 24//336 113//249
f 24//251 20//251 114//251
f 115//252 22//337 23//253
f 20//255 22//338 115//256
f 124//43 120//43 32//43
f 126//101 73//101 125//101
f 118//116 87//116 121//116
f 120//41 123//41 32//41
f 123//41 122//275 29//339
f 122//275 119//274 29//339
f 31//40 122//275 123//41
f 31//42 120//43 124//43
f 74//101 75//101 126//101
f 119//39 108//39 30//39
f 31//40 108//274 119//274
f 105//116 86//116 118//116
f 105//200 74//200 125//200
f 108//227 85//227 121//227
f 124//332 32//332 19//237
f 19//239 32//333 123//333
f 126//101 75//101 73//101
f 118//116 86//116 87//116
